<?xml version="1.0" encoding="UTF-8" standalone="no"?>
<!-- Created with Inkscape (http://www.inkscape.org/) -->

<svg
   xmlns:dc="http://purl.org/dc/elements/1.1/"
   xmlns:cc="http://creativecommons.org/ns#"
   xmlns:rdf="http://www.w3.org/1999/02/22-rdf-syntax-ns#"
   xmlns:svg="http://www.w3.org/2000/svg"
   xmlns="http://www.w3.org/2000/svg"
   xmlns:sodipodi="http://sodipodi.sourceforge.net/DTD/sodipodi-0.dtd"
   xmlns:inkscape="http://www.inkscape.org/namespaces/inkscape"
   id="svg2"
   version="1.1"
   inkscape:version="0.48.4 r9939"
   width="97"
   height="85"
   xml:space="preserve"
   sodipodi:docname="bioversity-logo.svg"><metadata
     id="metadata8"><rdf:RDF><cc:Work
         rdf:about=""><dc:format>image/svg+xml</dc:format><dc:type
           rdf:resource="http://purl.org/dc/dcmitype/StillImage" /><dc:title /></cc:Work></rdf:RDF></metadata><defs
     id="defs6" /><sodipodi:namedview
     pagecolor="#ffffff"
     bordercolor="#666666"
     borderopacity="1"
     objecttolerance="10"
     gridtolerance="10"
     guidetolerance="10"
     inkscape:pageopacity="0"
     inkscape:pageshadow="2"
     inkscape:window-width="1215"
     inkscape:window-height="1000"
     id="namedview4"
     showgrid="false"
     inkscape:zoom="8.4536082"
     inkscape:cx="48.5"
     inkscape:cy="42.5"
     inkscape:window-x="65"
     inkscape:window-y="24"
     inkscape:window-maximized="1"
     inkscape:current-layer="g10" /><g
     id="g10"
     inkscape:groupmode="layer"
     inkscape:label="ink_ext_XXXXXX"
     transform="matrix(1.25,0,0,-1.25,0,85.000024)"><g
       id="g12"
       transform="matrix(0.01581018,0,0,0.01581018,1.0930002e-7,0.19153029)"><path
         d="m 2230.11,2145.25 c -253.83,-81.79 -532.17,-160.08 -706.8,-320.45 -28.14,-25.76 -62.34,-61.11 -79.06,-97.13 -18.13,-39.12 -32.42,-79.16 -35.29,-134.04 -8.01,-153.48 30.68,-261.99 84.58,-352.07 7.37,-12.23 16.92,-23.22 22.95,-37.17 75.8,149.4 252.86,233.56 409.95,297.29 115.21,46.93 423.49,148.06 453.43,159.47 76.21,29.04 144.64,61.17 212.73,99.14 22.3,12.56 46.75,28.01 67.74,42.21 56.21,38.55 113.97,86.44 144.45,152.24 24.48,52.43 33.97,138.91 28.87,213.72 -5.15,78 -21.89,136.09 -47.65,192.28 -72.02,-32.73 -101.14,-49.22 -224.36,-97.87 l -331.54,-117.62"
         style="fill:#26923c;fill-opacity:1;fill-rule:nonzero;stroke:none"
         id="path14"
         inkscape:connector-curvature="0" /><path
         d="m 3557.41,2835.09 c -2.12,-11.4 -4.56,-22.2 -7.36,-31.81 -20.72,-70.68 -71.15,-129.1 -133.57,-177.46 360.45,-280.52 592.32,-715.71 592.32,-1203.46 l 251.99,0 c 0,574.59 -275.94,1086.47 -703.38,1412.73"
         style="fill:#26923c;fill-opacity:1;fill-rule:nonzero;stroke:none"
         id="path16"
         inkscape:connector-curvature="0" /><path
         d="m 661.039,1422.36 252.004,0 c 0,431.65 181.637,822.09 473.207,1100.65 -101.56,3.13 -207.4,16.81 -304.12,43.97 C 819.48,2257.06 661.039,1857.72 661.039,1422.36"
         style="fill:#26923c;fill-opacity:1;fill-rule:nonzero;stroke:none"
         id="path18"
         inkscape:connector-curvature="0" /><path
         d="m 218.547,723.121 128.148,0 c 45.692,0 85.43,12.91 85.43,67.547 0,41.723 -24.836,64.57 -76.488,64.57 l -137.09,0 0,-132.117 z m 0,264.238 115.23,0 c 45.696,0 74.504,12.911 74.504,58.611 0,35.77 -29.801,48.68 -74.504,48.68 l -115.23,0 0,-107.291 z M 0,1263.52 l 388.414,0 c 186.758,0 226.492,-105.3 226.492,-177.81 0,-71.52 -34.769,-110.269 -87.418,-139.081 63.575,-21.848 123.18,-72.508 123.18,-176.82 0,-142.059 -123.18,-215.559 -248.344,-215.559 L 0,554.25 0,1263.52"
         style="fill:#231f20;fill-opacity:1;fill-rule:nonzero;stroke:none"
         id="path20"
         inkscape:connector-curvature="0" /><path
         d="m 717.223,1069.81 196.687,0 0,-515.56 -196.687,0 0,515.56 z m 196.687,55.64 -196.687,0 0,138.07 196.687,0 0,-138.07"
         style="fill:#231f20;fill-opacity:1;fill-rule:nonzero;stroke:none"
         id="path22"
         inkscape:connector-curvature="0" /><path
         d="m 1255.63,939.68 c -74.51,0 -84.44,-72.512 -84.44,-127.149 0,-54.64 9.93,-128.152 84.44,-128.152 74.5,0 84.43,73.512 84.43,128.152 0,54.637 -9.93,127.149 -84.43,127.149 z m 0,-398.34 c -193.72,0 -281.134,128.14 -281.134,271.191 0,143.039 87.414,270.189 281.134,270.189 193.71,0 281.12,-127.15 281.12,-270.189 0,-143.051 -87.41,-271.191 -281.12,-271.191"
         style="fill:#231f20;fill-opacity:1;fill-rule:nonzero;stroke:none"
         id="path24"
         inkscape:connector-curvature="0" /><path
         d="m 1930.12,554.25 -232.45,0 -168.88,515.56 207.62,0 80.47,-313.9 1.98,0 81.46,313.9 200.66,0 -170.86,-515.56"
         style="fill:#231f20;fill-opacity:1;fill-rule:nonzero;stroke:none"
         id="path26"
         inkscape:connector-curvature="0" /><path
         d="m 2469.52,870.141 c 0,47.687 -35.76,86.429 -86.42,86.429 -58.61,0 -92.38,-30.8 -101.32,-86.429 l 187.74,0 z M 2280.78,767.82 c 4.97,-58.601 38.75,-100.332 100.33,-100.332 31.8,0 66.56,11.922 82.45,36.762 l 183.78,0 c -39.73,-111.262 -148.01,-162.91 -265.23,-162.91 -164.9,0 -289.08,97.34 -289.08,269.199 0,150.012 109.27,272.181 272.19,272.181 204.63,0 293.05,-114.24 293.05,-314.9 l -377.49,0"
         style="fill:#231f20;fill-opacity:1;fill-rule:nonzero;stroke:none"
         id="path28"
         inkscape:connector-curvature="0" /><path
         d="m 2710.91,1069.81 188.75,0 0,-82.451 1.98,0 c 31.79,61.591 73.51,95.361 145.03,95.361 19.86,0 38.75,-2.98 57.62,-7.94 l 0,-173.839 c -19.87,6.95 -37.76,12.918 -77.48,12.918 -77.48,0 -119.21,-45.711 -119.21,-155.968 l 0,-203.641 -196.69,0 0,515.56"
         style="fill:#231f20;fill-opacity:1;fill-rule:nonzero;stroke:none"
         id="path30"
         inkscape:connector-curvature="0" /><path
         d="m 3440.03,919.809 c -0.98,16.89 -9.92,29.812 -22.83,38.742 -11.94,9.929 -27.83,14.91 -43.71,14.91 -27.82,0 -59.61,-5.961 -59.61,-39.742 0,-14.899 11.91,-21.86 22.85,-26.821 32.77,-13.91 107.28,-17.878 172.85,-39.73 65.57,-20.867 123.18,-59.609 123.18,-144.047 0,-143.043 -137.09,-181.781 -262.26,-181.781 -121.19,0 -254.31,48.672 -257.29,181.781 l 187.76,0 c 0.99,-17.883 8.93,-32.781 23.82,-45.691 9.95,-8.95 28.81,-14.899 52.66,-14.899 25.84,0 66.56,9.93 66.56,39.731 0,29.797 -16.89,38.738 -108.28,54.629 -150,25.828 -210.6,73.519 -210.6,161.929 0,130.13 140.08,163.9 243.38,163.9 111.27,0 245.37,-30.79 250.33,-162.911 l -178.81,0"
         style="fill:#231f20;fill-opacity:1;fill-rule:nonzero;stroke:none"
         id="path32"
         inkscape:connector-curvature="0" /><path
         d="m 3686.4,1069.81 196.68,0 0,-515.56 -196.68,0 0,515.56 z m 196.68,55.64 -196.68,0 0,138.07 196.68,0 0,-138.07"
         style="fill:#231f20;fill-opacity:1;fill-rule:nonzero;stroke:none"
         id="path34"
         inkscape:connector-curvature="0" /><path
         d="m 4201.94,1069.81 105.3,0 0,-121.189 -105.3,0 0,-179.801 c 0,-47.691 10.92,-68.55 60.59,-68.55 14.9,0 29.8,1 44.71,2.98 l 0,-149 c -39.73,0 -84.44,-5.961 -126.16,-5.961 -83.45,0 -175.84,12.91 -175.84,153.973 l 0,246.359 -87.42,0 0,121.189 87.42,0 0,156.96 196.7,0 0,-156.96"
         style="fill:#231f20;fill-opacity:1;fill-rule:nonzero;stroke:none"
         id="path36"
         inkscape:connector-curvature="0" /><path
         d="m 4737.37,593.98 c -15.9,-45.691 -33.77,-104.3 -64.57,-143.039 -51.66,-64.57 -131.13,-63.582 -207.61,-63.582 l -89.42,0 0,156.95 45.7,0 c 19.87,0 45.71,-1.989 59.61,4.972 11.92,5.957 18.87,15.891 18.87,38.75 0,24.828 -75.49,214.571 -86.42,244.36 l -87.43,237.419 210.61,0 82.44,-296.021 1.99,0 83.44,296.021 203.65,0 -170.86,-475.83"
         style="fill:#231f20;fill-opacity:1;fill-rule:nonzero;stroke:none"
         id="path38"
         inkscape:connector-curvature="0" /><path
         d="m 23.3945,8.25 73.7109,0 0,421.031 -73.7109,0 0,-421.031 z"
         style="fill:#231f20;fill-opacity:1;fill-rule:nonzero;stroke:none"
         id="path40"
         inkscape:connector-curvature="0" /><path
         d="m 300.543,313.109 63.687,0 0,-44.808 1.176,-1.18 c 20.047,33.609 54.836,54.25 94.938,54.25 66.043,0 107.914,-35.391 107.914,-103.781 l 0,-209.34 -67.227,0 0,191.641 c -1.176,47.757 -20.051,68.41 -59.554,68.41 -44.817,0 -73.711,-35.379 -73.711,-80.199 l 0,-179.852 -67.223,0 0,304.859"
         style="fill:#231f20;fill-opacity:1;fill-rule:nonzero;stroke:none"
         id="path42"
         inkscape:connector-curvature="0" /><path
         d="m 731.008,313.109 50.711,0 0,91.403 67.222,0 0,-91.403 60.739,0 0,-50.121 -60.739,0 0,-162.75 c 0,-27.7067 2.36,-41.8591 32.43,-41.8591 9.442,0 18.871,0 28.309,2.3516 l 0,-51.89066 C 894.938,7.66016 880.785,5.30078 866.039,5.30078 c -70.172,0 -83.144,27.12892 -84.32,77.83982 l 0,179.8474 -50.711,0 0,50.121"
         style="fill:#231f20;fill-opacity:1;fill-rule:nonzero;stroke:none"
         id="path44"
         inkscape:connector-curvature="0" /><path
         d="m 1290.01,187.512 c -2.35,42.457 -31.25,80.789 -76.66,80.789 -46.58,0 -78.42,-35.379 -80.19,-80.789 l 156.85,0 z m -156.85,-44.223 c 0,-47.7577 25.95,-90.2304 81.96,-90.2304 38.92,0 62.51,17.1016 74.3,50.7224 l 63.69,0 C 1338.36,37.1484 1281.76,0 1215.12,0 c -95.53,0 -149.18,66.6289 -149.18,160.391 0,86.679 56.6,160.98 147.41,160.98 96.12,0 155.09,-86.68 143.89,-178.082 l -224.08,0"
         style="fill:#231f20;fill-opacity:1;fill-rule:nonzero;stroke:none"
         id="path46"
         inkscape:connector-curvature="0" /><path
         d="m 1531.2,313.109 63.09,0 0,-58.961 1.18,0 c 7.66,32.43 47.76,67.223 89.04,67.223 15.33,0 19.46,-1.18 25.36,-1.769 l 0,-64.872 c -9.44,1.188 -19.46,2.95 -28.9,2.95 -45.99,0 -82.55,-37.141 -82.55,-104.371 l 0,-145.059 -67.22,0 0,304.859"
         style="fill:#231f20;fill-opacity:1;fill-rule:nonzero;stroke:none"
         id="path48"
         inkscape:connector-curvature="0" /><path
         d="m 1872.02,313.109 63.69,0 0,-44.808 1.17,-1.18 c 20.05,33.609 54.84,54.25 94.94,54.25 66.05,0 107.92,-35.391 107.92,-103.781 l 0,-209.34 -67.23,0 0,191.641 c -1.18,47.757 -20.05,68.41 -59.56,68.41 -44.81,0 -73.71,-35.379 -73.71,-80.199 l 0,-179.852 -67.22,0 0,304.859"
         style="fill:#231f20;fill-opacity:1;fill-rule:nonzero;stroke:none"
         id="path50"
         inkscape:connector-curvature="0" /><path
         d="m 2521.25,160.969 c -20.63,-13.559 -53.08,-12.957 -82.55,-18.278 -28.9,-4.711 -54.84,-15.332 -54.84,-50.7105 0,-30.0703 38.33,-38.9219 61.91,-38.9219 29.48,0 75.48,15.3398 75.48,57.8004 l 0,50.11 z m 67.22,-84.9104 c 0,-16.5078 3.54,-23 15.92,-23 4.14,0 9.44,0 16.52,1.1914 l 0,-46.58984 C 2610.89,4.12109 2589.66,0 2578.45,0 2551.32,0 2531.87,9.42969 2526.55,37.1484 2500.03,11.1992 2456.98,0 2421.01,0 c -54.84,0 -104.37,29.4805 -104.37,89.0313 0,76.0777 60.73,88.4567 117.34,94.9377 48.35,8.851 91.4,3.543 91.4,43.051 0,34.789 -35.98,41.281 -63.09,41.281 -37.74,0 -64.28,-15.332 -67.23,-48.36 l -67.22,0 c 4.71,78.43 71.35,101.43 138.57,101.43 59.56,0 122.06,-24.172 122.06,-88.449 l 0,-156.8634"
         style="fill:#231f20;fill-opacity:1;fill-rule:nonzero;stroke:none"
         id="path52"
         inkscape:connector-curvature="0" /><path
         d="m 2753,313.109 50.71,0 0,91.403 67.22,0 0,-91.403 60.74,0 0,-50.121 -60.74,0 0,-162.75 c 0,-27.7067 2.36,-41.8591 32.44,-41.8591 9.43,0 18.87,0 28.3,2.3516 l 0,-51.89066 c -14.75,-1.17968 -28.89,-3.53906 -43.63,-3.53906 -70.18,0 -83.15,27.12892 -84.33,77.83982 l 0,179.8474 -50.71,0 0,50.121"
         style="fill:#231f20;fill-opacity:1;fill-rule:nonzero;stroke:none"
         id="path54"
         inkscape:connector-curvature="0" /><path
         d="m 3104.44,313.109 67.23,0 0,-304.859 -67.23,0 0,304.859 z m 0,116.172 67.23,0 0,-63.691 -67.23,0 0,63.691"
         style="fill:#231f20;fill-opacity:1;fill-rule:nonzero;stroke:none"
         id="path56"
         inkscape:connector-curvature="0" /><path
         d="m 3593.88,160.969 c 0,52.492 -26.55,107.332 -86.68,107.332 -60.16,0 -86.7,-54.84 -86.7,-107.332 0,-53.059 26.54,-107.9104 86.7,-107.9104 60.13,0 86.68,54.8514 86.68,107.9104 z m -240.59,0 c 0,93.179 56.02,160.402 153.91,160.402 97.87,0 153.9,-67.223 153.9,-160.402 C 3661.1,67.2188 3605.07,0 3507.2,0 3409.31,0 3353.29,67.2188 3353.29,160.969"
         style="fill:#231f20;fill-opacity:1;fill-rule:nonzero;stroke:none"
         id="path58"
         inkscape:connector-curvature="0" /><path
         d="m 3839.76,313.109 63.69,0 0,-44.808 1.17,-1.18 c 20.06,33.609 54.84,54.25 94.94,54.25 66.06,0 107.91,-35.391 107.91,-103.781 l 0,-209.34 -67.23,0 0,191.641 c -1.17,47.757 -20.03,68.41 -59.55,68.41 -44.82,0 -73.71,-35.379 -73.71,-80.199 l 0,-179.852 -67.22,0 0,304.859"
         style="fill:#231f20;fill-opacity:1;fill-rule:nonzero;stroke:none"
         id="path60"
         inkscape:connector-curvature="0" /><path
         d="m 4488.99,160.969 c -20.64,-13.559 -53.06,-12.957 -82.55,-18.278 -28.89,-4.711 -54.85,-15.332 -54.85,-50.7105 0,-30.0703 38.34,-38.9219 61.92,-38.9219 29.49,0 75.48,15.3398 75.48,57.8004 l 0,50.11 z m 67.23,-84.9104 c 0,-16.5078 3.54,-23 15.92,-23 4.12,0 9.43,0 16.5,1.1914 l 0,-46.58984 C 4578.62,4.12109 4557.39,0 4546.18,0 4519.07,0 4499.6,9.42969 4494.31,37.1484 4467.76,11.1992 4424.72,0 4388.74,0 c -54.84,0 -104.37,29.4805 -104.37,89.0313 0,76.0777 60.74,88.4567 117.34,94.9377 48.36,8.851 91.41,3.543 91.41,43.051 0,34.789 -35.98,41.281 -63.09,41.281 -37.75,0 -64.28,-15.332 -67.23,-48.36 l -67.22,0 c 4.72,78.43 71.34,101.43 138.57,101.43 59.55,0 122.07,-24.172 122.07,-88.449 l 0,-156.8634"
         style="fill:#231f20;fill-opacity:1;fill-rule:nonzero;stroke:none"
         id="path62"
         inkscape:connector-curvature="0" /><path
         d="m 4753.17,8.25 67.2266,0 0,421.031 -67.2266,0 0,-421.031 z"
         style="fill:#231f20;fill-opacity:1;fill-rule:nonzero;stroke:none"
         id="path64"
         inkscape:connector-curvature="0" /><path
         d="m 2832.8,3687.86 c 28.26,-194.52 -110.66,-375.63 -310.17,-404.34 -199.36,-28.89 -383.77,105.48 -411.88,300.05 -28.12,194.6 110.8,375.71 310.16,404.34 199.33,28.89 383.83,-105.56 411.89,-300.05"
         style="fill:#005696;fill-opacity:1;fill-rule:nonzero;stroke:none"
         id="path66"
         inkscape:connector-curvature="0" /><path
         d="m 1916.81,2839.04 c -23.54,78.28 -44.69,153.34 -52.91,245.37 -1.8,21.02 -7.13,50.86 -5.59,74.57 2.97,42.8 15.84,101.08 27.11,139.59 2.95,9.92 13.83,32 16.56,43.19 10.98,43.22 15.76,90.11 16.17,129.12 0.98,90.03 -20.87,174.28 -46.54,247.33 -3.18,9.65 -12.48,21.21 -16.17,30.43 -80.68,205.97 -239.02,387.48 -412.36,528.16 l -7.52,-7.87 c -7.66,-19.82 -7.5,-35.33 -12.74,-56.17 -15.1,-60.65 -35.33,-141 -41.89,-207.54 -6.51,-69.4 -16.82,-124.55 -16.82,-187.38 0.33,-201.21 49.59,-398.33 155.37,-523.84 31.33,-36.99 72.33,-74.18 114.26,-102.44 19.26,-12.81 35.66,-19.39 52.58,-33.59 87.34,-72.64 139.1,-223.75 158.24,-346.39 -43.3,26.88 -94.41,59.2 -124.77,95.16 -36.34,43.28 -55.15,101.29 -91.73,144.63 -79.96,95.07 -201.64,175.95 -358.77,215.13 -150.37,37.66 -300.743,37.93 -424.435,30.02 -25.878,-1.52 -48.656,-1.6 -73.5,-4.8 -53.843,-6.82 -102.539,-18.05 -158.32,-22.84 23.676,-95.62 59.785,-183.24 119.028,-253.61 11.074,-12.99 14.507,-21.52 28.867,-32.6 2.031,-1.62 10.586,-9.35 12.691,-11.4 18.789,-17.46 26.035,-26.06 47.5,-41.9 6.469,-4.66 27.016,-16.75 33.715,-21.19 166.134,-106.23 425.014,-137.03 632.204,-124.08 34.79,2.27 73.42,6.37 109.43,11.89 34.71,5.34 78.83,20.51 126.74,5.75 46.51,-14.05 75.08,-50.96 102.97,-79.03 l -0.99,-5.97"
         style="fill:#26923c;fill-opacity:1;fill-rule:nonzero;stroke:none"
         id="path68"
         inkscape:connector-curvature="0" /><path
         d="m 2207.06,2992.87 c -135.1,-49.63 -275.33,-95.08 -370.64,-190.88 12.91,13.13 -50.64,-56.43 -53.08,-62.07 l -19.11,-28.57 c -59.22,-77.19 -53.87,-217.39 -39.51,-306.72 9.02,-55.94 30.6,-112.87 53.61,-159.3 9.55,-18.87 27.4,-40.2 31.76,-57.11 85.95,151.45 266.13,224.12 432.91,282.85 75.13,26.58 157.4,56.04 236.95,77.6 l 198.87,56.37 c 72.19,19.59 138.85,41.33 205.66,65.04 148.52,52.83 355.28,140.76 410.06,299.82 14,40.86 23.07,102.79 22.74,150.61 -1,131.91 -41.43,219.76 -99.2,320.02 -20.84,-30.76 -42.66,-60.14 -67.82,-85.42 -12.55,-12.61 -27.98,-27.88 -42.57,-38.37 -20.36,-14.36 -39.15,-25.28 -60.79,-38.07 -119.53,-71.04 -268.9,-120.74 -413.71,-160.12 l -281.83,-76.87 -144.3,-48.81"
         style="fill:#005696;fill-opacity:1;fill-rule:nonzero;stroke:none"
         id="path70"
         inkscape:connector-curvature="0" /></g></g></svg>