<?xml version="1.0" encoding="UTF-8" standalone="no"?>
<!-- Created with Inkscape (http://www.inkscape.org/) -->

<svg
   xmlns:dc="http://purl.org/dc/elements/1.1/"
   xmlns:cc="http://creativecommons.org/ns#"
   xmlns:rdf="http://www.w3.org/1999/02/22-rdf-syntax-ns#"
   xmlns:svg="http://www.w3.org/2000/svg"
   xmlns="http://www.w3.org/2000/svg"
   xmlns:sodipodi="http://sodipodi.sourceforge.net/DTD/sodipodi-0.dtd"
   xmlns:inkscape="http://www.inkscape.org/namespaces/inkscape"
   id="svg2"
   version="1.1"
   inkscape:version="0.48.4 r9939"
   width="100"
   height="100"
   xml:space="preserve"
   sodipodi:docname="CGIAR_Branding_Guidelines_and_Toolkit.pdf"><metadata
     id="metadata8"><rdf:RDF><cc:Work
         rdf:about=""><dc:format>image/svg+xml</dc:format><dc:type
           rdf:resource="http://purl.org/dc/dcmitype/StillImage" /><dc:title></dc:title></cc:Work></rdf:RDF></metadata><defs
     id="defs6"><clipPath
       clipPathUnits="userSpaceOnUse"
       id="clipPath16"><path
         d="m 0,0 1224,0 0,792 L 0,792 0,0 z"
         id="path18"
         inkscape:connector-curvature="0" /></clipPath><clipPath
       clipPathUnits="userSpaceOnUse"
       id="clipPath26"><path
         d="M 0,792 1224,792 1224,0 0,0 0,792 z"
         id="path28"
         inkscape:connector-curvature="0" /></clipPath><clipPath
       clipPathUnits="userSpaceOnUse"
       id="clipPath94"><path
         d="m 0,0 1224,0 0,792 L 0,792 0,0 z"
         id="path96"
         inkscape:connector-curvature="0" /></clipPath><clipPath
       clipPathUnits="userSpaceOnUse"
       id="clipPath106"><path
         d="m 270.578,355.782 72.667,0 0,85.006 -72.667,0 0,-85.006 z"
         id="path108"
         inkscape:connector-curvature="0" /></clipPath><clipPath
       clipPathUnits="userSpaceOnUse"
       id="clipPath122"><path
         d="m 0,0 1224,0 0,792 L 0,792 0,0 z"
         id="path124"
         inkscape:connector-curvature="0" /></clipPath><clipPath
       clipPathUnits="userSpaceOnUse"
       id="clipPath160"><path
         d="m 0,0 1224,0 0,792 L 0,792 0,0 z"
         id="path162"
         inkscape:connector-curvature="0" /></clipPath><clipPath
       clipPathUnits="userSpaceOnUse"
       id="clipPath176"><path
         d="m 101.73,350.194 78.385,0 0,96.206 -78.385,0 0,-96.206 z"
         id="path178"
         inkscape:connector-curvature="0" /></clipPath><clipPath
       clipPathUnits="userSpaceOnUse"
       id="clipPath192"><path
         d="m 0,0 1224,0 0,792 L 0,792 0,0 z"
         id="path194"
         inkscape:connector-curvature="0" /></clipPath><clipPath
       clipPathUnits="userSpaceOnUse"
       id="clipPath230"><path
         d="m 0,0 1224,0 0,792 L 0,792 0,0 z"
         id="path232"
         inkscape:connector-curvature="0" /></clipPath><clipPath
       clipPathUnits="userSpaceOnUse"
       id="clipPath246"><path
         d="m 432.816,350.194 78.385,0 0,96.206 -78.385,0 0,-96.206 z"
         id="path248"
         inkscape:connector-curvature="0" /></clipPath><clipPath
       clipPathUnits="userSpaceOnUse"
       id="clipPath262"><path
         d="m 0,0 1224,0 0,792 L 0,792 0,0 z"
         id="path264"
         inkscape:connector-curvature="0" /></clipPath><clipPath
       clipPathUnits="userSpaceOnUse"
       id="clipPath300"><path
         d="m 0,0 1224,0 0,792 L 0,792 0,0 z"
         id="path302"
         inkscape:connector-curvature="0" /></clipPath><clipPath
       id="clipPath4779"
       clipPathUnits="userSpaceOnUse"><path
         id="path4781"
         d="m 0,0 1224,0 0,792 L 0,792 0,0 z"
         inkscape:connector-curvature="0" /></clipPath><clipPath
       id="clipPath4737"
       clipPathUnits="userSpaceOnUse"><path
         id="path4739"
         d="m 0,0 1224,0 0,792 L 0,792 0,0 z"
         inkscape:connector-curvature="0" /></clipPath><clipPath
       id="clipPath4687"
       clipPathUnits="userSpaceOnUse"><path
         id="path4689"
         d="m 0,0 1224,0 0,792 L 0,792 0,0 z"
         inkscape:connector-curvature="0" /></clipPath><clipPath
       id="clipPath4599"
       clipPathUnits="userSpaceOnUse"><path
         id="path4601"
         d="m 823.85,150.317 387.77,0 0,-70.3406 -387.77,0 0,70.3406 z"
         inkscape:connector-curvature="0" /></clipPath><clipPath
       id="clipPath4591"
       clipPathUnits="userSpaceOnUse"><path
         id="path4593"
         d="m 0,0 1224,0 0,792 L 0,792 0,0 z"
         inkscape:connector-curvature="0" /></clipPath><clipPath
       id="clipPath4537"
       clipPathUnits="userSpaceOnUse"><path
         id="path4539"
         d="m 0,0 1224,0 0,792 L 0,792 0,0 z"
         inkscape:connector-curvature="0" /></clipPath><clipPath
       id="clipPath4499"
       clipPathUnits="userSpaceOnUse"><path
         id="path4501"
         d="m 0,0 1224,0 0,792 L 0,792 0,0 z"
         inkscape:connector-curvature="0" /></clipPath><clipPath
       id="clipPath4483"
       clipPathUnits="userSpaceOnUse"><path
         id="path4485"
         d="m 699.165,59.948 82.745,0 0,101.556 -82.745,0 0,-101.556 z"
         inkscape:connector-curvature="0" /></clipPath><clipPath
       id="clipPath4471"
       clipPathUnits="userSpaceOnUse"><path
         id="path4473"
         d="m 0,0 1224,0 0,792 L 0,792 0,0 z"
         inkscape:connector-curvature="0" /></clipPath><clipPath
       id="clipPath4167"
       clipPathUnits="userSpaceOnUse"><path
         id="path4169"
         d="m 0,0 1224,0 0,792 L 0,792 0,0 z"
         inkscape:connector-curvature="0" /></clipPath><clipPath
       id="clipPath4129"
       clipPathUnits="userSpaceOnUse"><path
         id="path4131"
         d="m 0,0 1224,0 0,792 L 0,792 0,0 z"
         inkscape:connector-curvature="0" /></clipPath><clipPath
       id="clipPath4113"
       clipPathUnits="userSpaceOnUse"><path
         id="path4115"
         d="m 866.448,74.672 70.748,0 0,86.832 -70.748,0 0,-86.832 z"
         inkscape:connector-curvature="0" /></clipPath><clipPath
       id="clipPath4097"
       clipPathUnits="userSpaceOnUse"><path
         id="path4099"
         d="M 0,792 1224,792 1224,0 0,0 0,792 z"
         inkscape:connector-curvature="0" /></clipPath><clipPath
       id="clipPath4087"
       clipPathUnits="userSpaceOnUse"><path
         id="path4089"
         d="m 0,0 1224,0 0,792 L 0,792 0,0 z"
         inkscape:connector-curvature="0" /></clipPath><clipPath
       id="clipPath4087-8"
       clipPathUnits="userSpaceOnUse"><path
         inkscape:connector-curvature="0"
         id="path4089-7"
         d="m 0,0 1224,0 0,792 L 0,792 0,0 z" /></clipPath><clipPath
       id="clipPath4097-9"
       clipPathUnits="userSpaceOnUse"><path
         inkscape:connector-curvature="0"
         id="path4099-0"
         d="M 0,792 1224,792 1224,0 0,0 0,792 z" /></clipPath><clipPath
       id="clipPath4113-2"
       clipPathUnits="userSpaceOnUse"><path
         inkscape:connector-curvature="0"
         id="path4115-2"
         d="m 866.448,74.672 70.748,0 0,86.832 -70.748,0 0,-86.832 z" /></clipPath><clipPath
       id="clipPath4129-5"
       clipPathUnits="userSpaceOnUse"><path
         inkscape:connector-curvature="0"
         id="path4131-5"
         d="m 0,0 1224,0 0,792 L 0,792 0,0 z" /></clipPath><clipPath
       id="clipPath4167-0"
       clipPathUnits="userSpaceOnUse"><path
         inkscape:connector-curvature="0"
         id="path4169-2"
         d="m 0,0 1224,0 0,792 L 0,792 0,0 z" /></clipPath><clipPath
       id="clipPath4471-6"
       clipPathUnits="userSpaceOnUse"><path
         inkscape:connector-curvature="0"
         id="path4473-3"
         d="m 0,0 1224,0 0,792 L 0,792 0,0 z" /></clipPath><clipPath
       id="clipPath4483-0"
       clipPathUnits="userSpaceOnUse"><path
         inkscape:connector-curvature="0"
         id="path4485-5"
         d="m 699.165,59.948 82.745,0 0,101.556 -82.745,0 0,-101.556 z" /></clipPath><clipPath
       id="clipPath4499-5"
       clipPathUnits="userSpaceOnUse"><path
         inkscape:connector-curvature="0"
         id="path4501-0"
         d="m 0,0 1224,0 0,792 L 0,792 0,0 z" /></clipPath><clipPath
       id="clipPath4537-7"
       clipPathUnits="userSpaceOnUse"><path
         inkscape:connector-curvature="0"
         id="path4539-8"
         d="m 0,0 1224,0 0,792 L 0,792 0,0 z" /></clipPath><clipPath
       id="clipPath4591-5"
       clipPathUnits="userSpaceOnUse"><path
         inkscape:connector-curvature="0"
         id="path4593-8"
         d="m 0,0 1224,0 0,792 L 0,792 0,0 z" /></clipPath><clipPath
       id="clipPath4599-6"
       clipPathUnits="userSpaceOnUse"><path
         inkscape:connector-curvature="0"
         id="path4601-4"
         d="m 823.85,150.317 387.77,0 0,-70.3406 -387.77,0 0,70.3406 z" /></clipPath><clipPath
       id="clipPath4687-2"
       clipPathUnits="userSpaceOnUse"><path
         inkscape:connector-curvature="0"
         id="path4689-6"
         d="m 0,0 1224,0 0,792 L 0,792 0,0 z" /></clipPath><clipPath
       id="clipPath4737-8"
       clipPathUnits="userSpaceOnUse"><path
         inkscape:connector-curvature="0"
         id="path4739-3"
         d="m 0,0 1224,0 0,792 L 0,792 0,0 z" /></clipPath><clipPath
       id="clipPath4779-2"
       clipPathUnits="userSpaceOnUse"><path
         inkscape:connector-curvature="0"
         id="path4781-0"
         d="m 0,0 1224,0 0,792 L 0,792 0,0 z" /></clipPath><clipPath
       id="clipPath4087-5"
       clipPathUnits="userSpaceOnUse"><path
         inkscape:connector-curvature="0"
         id="path4089-8"
         d="m 0,0 1224,0 0,792 L 0,792 0,0 z" /></clipPath><clipPath
       id="clipPath4097-5"
       clipPathUnits="userSpaceOnUse"><path
         inkscape:connector-curvature="0"
         id="path4099-5"
         d="M 0,792 1224,792 1224,0 0,0 0,792 z" /></clipPath><clipPath
       id="clipPath4113-7"
       clipPathUnits="userSpaceOnUse"><path
         inkscape:connector-curvature="0"
         id="path4115-5"
         d="m 866.448,74.672 70.748,0 0,86.832 -70.748,0 0,-86.832 z" /></clipPath><clipPath
       id="clipPath4129-51"
       clipPathUnits="userSpaceOnUse"><path
         inkscape:connector-curvature="0"
         id="path4131-9"
         d="m 0,0 1224,0 0,792 L 0,792 0,0 z" /></clipPath><clipPath
       id="clipPath4167-3"
       clipPathUnits="userSpaceOnUse"><path
         inkscape:connector-curvature="0"
         id="path4169-8"
         d="m 0,0 1224,0 0,792 L 0,792 0,0 z" /></clipPath><clipPath
       id="clipPath4471-9"
       clipPathUnits="userSpaceOnUse"><path
         inkscape:connector-curvature="0"
         id="path4473-7"
         d="m 0,0 1224,0 0,792 L 0,792 0,0 z" /></clipPath><clipPath
       id="clipPath4483-4"
       clipPathUnits="userSpaceOnUse"><path
         inkscape:connector-curvature="0"
         id="path4485-57"
         d="m 699.165,59.948 82.745,0 0,101.556 -82.745,0 0,-101.556 z" /></clipPath><clipPath
       id="clipPath4499-9"
       clipPathUnits="userSpaceOnUse"><path
         inkscape:connector-curvature="0"
         id="path4501-00"
         d="m 0,0 1224,0 0,792 L 0,792 0,0 z" /></clipPath><clipPath
       id="clipPath4537-9"
       clipPathUnits="userSpaceOnUse"><path
         inkscape:connector-curvature="0"
         id="path4539-85"
         d="m 0,0 1224,0 0,792 L 0,792 0,0 z" /></clipPath><clipPath
       id="clipPath4591-7"
       clipPathUnits="userSpaceOnUse"><path
         inkscape:connector-curvature="0"
         id="path4593-7"
         d="m 0,0 1224,0 0,792 L 0,792 0,0 z" /></clipPath><clipPath
       id="clipPath4599-9"
       clipPathUnits="userSpaceOnUse"><path
         inkscape:connector-curvature="0"
         id="path4601-2"
         d="m 823.85,150.317 387.77,0 0,-70.3406 -387.77,0 0,70.3406 z" /></clipPath><clipPath
       id="clipPath4687-5"
       clipPathUnits="userSpaceOnUse"><path
         inkscape:connector-curvature="0"
         id="path4689-9"
         d="m 0,0 1224,0 0,792 L 0,792 0,0 z" /></clipPath><clipPath
       id="clipPath4737-5"
       clipPathUnits="userSpaceOnUse"><path
         inkscape:connector-curvature="0"
         id="path4739-7"
         d="m 0,0 1224,0 0,792 L 0,792 0,0 z" /></clipPath><clipPath
       id="clipPath4779-1"
       clipPathUnits="userSpaceOnUse"><path
         inkscape:connector-curvature="0"
         id="path4781-2"
         d="m 0,0 1224,0 0,792 L 0,792 0,0 z" /></clipPath><clipPath
       id="clipPath4113-2-9"
       clipPathUnits="userSpaceOnUse"><path
         inkscape:connector-curvature="0"
         id="path4115-2-1"
         d="m 866.448,74.672 70.748,0 0,86.832 -70.748,0 0,-86.832 z" /></clipPath><clipPath
       id="clipPath4167-0-8"
       clipPathUnits="userSpaceOnUse"><path
         inkscape:connector-curvature="0"
         id="path4169-2-8"
         d="m 0,0 1224,0 0,792 L 0,792 0,0 z" /></clipPath></defs><sodipodi:namedview
     pagecolor="#ffffff"
     bordercolor="#666666"
     borderopacity="1"
     objecttolerance="10"
     gridtolerance="10"
     guidetolerance="10"
     inkscape:pageopacity="0"
     inkscape:pageshadow="2"
     inkscape:window-width="1680"
     inkscape:window-height="1026"
     id="namedview4"
     showgrid="false"
     inkscape:showpageshadow="false"
     inkscape:zoom="5.7629203"
     inkscape:cx="47.230106"
     inkscape:cy="41.080432"
     inkscape:window-x="1280"
     inkscape:window-y="24"
     inkscape:window-maximized="1"
     inkscape:current-layer="g4081" /><g
     id="g10"
     inkscape:groupmode="layer"
     inkscape:label="CGIAR_Branding_Guidelines_and_Toolkit"
     transform="matrix(1.25,0,0,-1.25,0,100)"><g
       inkscape:label="CGIAR_Branding_Guidelines_and_Toolkit"
       id="g4081"
       transform="translate(-394.80736,-147.71043)"><g
         transform="matrix(0.87922991,0,0,0.87922991,-358.10152,82.093816)"
         id="g7091"><g
           id="g7054"><path
             inkscape:connector-curvature="0"
             d="m 899.5707,134.0101 c -0.772,0.993 -2.62,2.62 -3.586,3.586 -1.49,1.489 -1.876,1.931 -1.876,4.468 l 0,10.813 c 0,1.544 -2.371,1.324 -2.371,-0.055 0,0 -0.166,-18.812 0,-20.412 0.165,-1.6 -0.628,-2.848 1.93,-4.469 2.831,-1.794 6.896,-2.979 6.896,-2.979 0,0 0.055,4.138 0.111,5.682 0.055,1.545 -0.332,2.372 -1.104,3.366 m -1.195,-5.881 c 0,-0.007 -0.007,-0.015 -0.007,-0.015 -3.965,1.616 -4.66,1.301 -4.165,7.326 4.686,-2.87 4.359,-3.924 4.172,-7.311"
             style="fill:#387c2b;fill-opacity:1;fill-rule:nonzero;stroke:none"
             id="path4107" /><g
             id="g4109"><g
               clip-path="url(#clipPath4113-2-9)"
               id="g4111"><g
                 transform="translate(903.0279,130.6446)"
                 id="g4117"><path
                   id="path4119"
                   style="fill:#387c2b;fill-opacity:1;fill-rule:nonzero;stroke:none"
                   d="m 0,0 c 0.055,-1.545 0.11,-5.683 0.11,-5.683 0,0 4.066,1.186 6.895,2.98 2.559,1.62 1.767,2.869 1.932,4.468 0.165,1.601 0,20.412 0,20.412 0,1.379 -2.372,1.6 -2.372,0.055 l 0,-10.813 C 6.565,8.882 6.179,8.44 4.689,6.951 3.723,5.985 1.876,4.358 1.103,3.366 0.331,2.372 -0.056,1.545 0,0 M 6.47,4.796 C 6.966,-1.229 6.271,-0.915 2.306,-2.53 c 0,0 -0.007,0.008 -0.008,0.015 C 2.112,0.872 1.784,1.926 6.47,4.796"
                   inkscape:connector-curvature="0" /></g><g
                 transform="translate(904.9866,145.0074)"
                 id="g4121"><path
                   id="path4123"
                   style="fill:#387c2b;fill-opacity:1;fill-rule:nonzero;stroke:none"
                   d="m 0,0 c -1.384,2.468 0,0 -1.907,3.217 l 0,11.933 c 0,1.87 -2.358,1.721 -2.358,0 l 0.03,-11.916 c 0,0 -2.012,-3.384 -2.574,-4.73 -0.56,-1.348 -1.316,-2.964 0.591,-5.133 0.142,-0.167 0.383,-0.624 3.167,-3.233 0.001,-10e-4 0.059,0.06 0.059,0.06 0,0 -0.016,0.015 2.43,2.432 C 2.469,-4.377 1.383,-2.467 0,0 m -3.068,-6.956 c -4.569,2.445 -1.303,5.758 0,7.951 l 0.114,-0.183 c 3.359,-5.026 2.445,-5.78 -0.114,-7.768"
                   inkscape:connector-curvature="0" /></g></g></g><path
             inkscape:connector-curvature="0"
             d="m 900.4969,119.4275 c -0.117,2.343 -0.947,4.412 -5.74,6.208 -4.026,1.509 -9.723,1.835 -13.862,2.499 -4.138,0.664 -11.011,1.796 -14.447,5.076 2.578,-8.564 9.032,-12.147 15.58,-13.549 7.418,-1.588 14.069,-2.256 18.114,-5.065 l 0.41,-0.285 c -0.23,1.976 0.062,2.773 -0.055,5.116 m -2.054,-1.138 c -3.548,1.362 -5.913,1.712 -12.303,2.997 -6.39,1.286 -10.209,2.461 -13.661,6.096 5.546,-2.129 14.432,-2.901 19.28,-3.929 4.849,-1.028 6.17,-2.284 6.688,-5.161 l -0.004,-0.003 z"
             style="fill:#387c2b;fill-opacity:1;fill-rule:nonzero;stroke:none"
             id="path4135" /><path
             inkscape:connector-curvature="0"
             d="m 903.0921,114.3113 0.41,0.285 c 4.044,2.809 10.697,3.477 18.114,5.065 6.548,1.402 13.002,4.985 15.58,13.549 -3.437,-3.28 -10.309,-4.412 -14.447,-5.076 -4.139,-0.664 -9.836,-0.99 -13.862,-2.499 -4.794,-1.796 -5.623,-3.865 -5.74,-6.208 -0.117,-2.343 0.175,-3.139 -0.055,-5.116 m 2.105,3.981 c 0.519,2.877 1.84,4.133 6.688,5.161 4.847,1.028 13.735,1.8 19.281,3.93 -3.453,-3.636 -7.272,-4.811 -13.662,-6.097 -6.39,-1.285 -8.754,-1.635 -12.303,-2.997 l -0.004,0.003 z"
             style="fill:#387c2b;fill-opacity:1;fill-rule:nonzero;stroke:none"
             id="path4139" /><path
             inkscape:connector-curvature="0"
             d="m 900.2524,108.5409 c 0.052,4.606 -2.587,5.899 -6.52,6.935 -3.933,1.034 -9.417,1.809 -14.074,3.155 -4.657,1.346 -7.244,2.225 -10.4,5.64 0.672,-6.674 5.329,-11.383 11.073,-13.402 5.743,-2.017 5.432,-1.603 8.537,-2.38 3.105,-0.775 3.674,-1.914 3.674,-3.829 l 0,-3.932 7.71,0 c 0.154,8.9 -0.052,3.208 0,7.813 m -2.24,-5.315 -3.145,0 c 0,0 0.074,1.3 -0.11,3.537 -0.244,2.952 -3.685,3.212 -9.347,4.785 -3.885,1.079 -8.957,2.476 -11.224,6.359 1.377,-0.605 4.141,-1.771 8.649,-2.698 4.289,-0.882 6.738,-1.382 10.687,-2.203 3.755,-0.782 4.49,-3.086 4.49,-5.619 l 0,-4.161 z"
             style="fill:#387c2b;fill-opacity:1;fill-rule:nonzero;stroke:none"
             id="path4143" /><path
             inkscape:connector-curvature="0"
             d="m 903.2499,100.7159 7.711,0 0,3.933 c 0,1.913 0.569,3.052 3.673,3.829 3.105,0.775 2.794,0.362 8.537,2.379 5.744,2.019 10.401,6.727 11.073,13.402 -3.155,-3.415 -5.743,-4.295 -10.399,-5.64 -4.658,-1.345 -10.142,-2.121 -14.075,-3.156 -3.932,-1.035 -6.571,-2.329 -6.52,-6.934 0.052,-4.605 -0.155,1.087 0,-7.813 m 2.24,6.658 c 0,2.534 0.735,4.838 4.49,5.62 3.949,0.821 6.399,1.321 10.687,2.202 4.509,0.928 7.272,2.094 8.649,2.7 -2.267,-3.884 -7.339,-5.281 -11.224,-6.361 -5.662,-1.573 -9.103,-1.833 -9.346,-4.783 -0.184,-2.238 -0.111,-3.537 -0.111,-3.537 l -3.145,0 0,4.159 z"
             style="fill:#387c2b;fill-opacity:1;fill-rule:nonzero;stroke:none"
             id="path4147" /></g><g
           id="g7043"><path
             inkscape:connector-curvature="0"
             d="m 884.6796,79.1703 c -0.989,-0.233 -2.056,-0.426 -3.083,-0.426 -4.383,0 -7.427,2.191 -7.427,6.767 0,4.635 2.831,7.233 7.427,7.233 0.892,0 2.074,-0.174 3.064,-0.563 l -0.195,-2.287 c -1.027,0.581 -1.958,0.717 -2.928,0.717 -2.792,0 -4.537,-2.133 -4.537,-4.906 0,-2.754 1.706,-4.828 4.596,-4.828 1.066,0 2.327,0.232 2.967,0.562 l 0.116,-2.269 z"
             style="fill:#387c2b;fill-opacity:1;fill-rule:nonzero;stroke:none"
             id="path4151" /><path
             inkscape:connector-curvature="0"
             d="m 897.2448,89.894 c -1.047,0.485 -2.405,0.717 -3.49,0.717 -3.161,0 -4.906,-2.133 -4.906,-4.906 0,-2.753 1.706,-4.828 4.595,-4.828 0.737,0 1.319,0.077 1.784,0.194 l 0,3.529 -2.87,0 0,2.133 5.469,0 0,-7.291 c -1.435,-0.388 -2.928,-0.698 -4.383,-0.698 -4.382,0 -7.427,2.191 -7.427,6.768 0,4.634 2.832,7.232 7.427,7.232 1.571,0 2.812,-0.213 3.975,-0.562 l -0.174,-2.288 z"
             style="fill:#387c2b;fill-opacity:1;fill-rule:nonzero;stroke:none"
             id="path4155" /><path
             id="path4157"
             style="fill:#387c2b;fill-opacity:1;fill-rule:nonzero;stroke:none"
             d="m 900.443,92.512 2.715,0 0,-13.535 -2.715,0 0,13.535 z"
             inkscape:connector-curvature="0" /><g
             transform="translate(909.9453,92.5117)"
             id="g4159"><path
               id="path4161"
               style="fill:#387c2b;fill-opacity:1;fill-rule:nonzero;stroke:none"
               d="m 0,0 3.064,0 5.313,-13.535 -3.006,0 -1.163,3.103 -5.488,0 -1.183,-3.103 -2.811,0 L 0,0 z m 1.493,-2.715 -0.038,0 -1.959,-5.584 3.956,0 -1.959,5.584 z"
               inkscape:connector-curvature="0" /></g><g
             id="g4163"><g
               clip-path="url(#clipPath4167-0-8)"
               id="g4165"><g
                 transform="translate(919.834,92.5117)"
                 id="g4171"><path
                   id="path4173"
                   style="fill:#387c2b;fill-opacity:1;fill-rule:nonzero;stroke:none"
                   d="m 0,0 2.928,0 c 2.909,0 6.38,0.097 6.38,-3.665 0,-1.59 -1.067,-2.909 -2.792,-3.141 l 0,-0.039 C 7.252,-6.903 7.679,-7.64 7.95,-8.241 l 2.172,-5.294 -3.025,0 -1.629,4.227 c -0.387,1.009 -0.737,1.396 -1.88,1.396 l -0.873,0 0,-5.623 -2.715,0 L 0,0 z m 2.715,-5.779 0.892,0 c 1.338,0 2.87,0.195 2.87,1.881 0,1.629 -1.513,1.765 -2.87,1.765 l -0.892,0 0,-3.646 z"
                   inkscape:connector-curvature="0" /></g></g></g></g></g></g></g></svg>