<?xml version="1.0" encoding="UTF-8" standalone="no"?>
<!-- Created with Inkscape (http://www.inkscape.org/) -->

<svg
   xmlns:dc="http://purl.org/dc/elements/1.1/"
   xmlns:cc="http://creativecommons.org/ns#"
   xmlns:rdf="http://www.w3.org/1999/02/22-rdf-syntax-ns#"
   xmlns:svg="http://www.w3.org/2000/svg"
   xmlns="http://www.w3.org/2000/svg"
   xmlns:sodipodi="http://sodipodi.sourceforge.net/DTD/sodipodi-0.dtd"
   xmlns:inkscape="http://www.inkscape.org/namespaces/inkscape"
   id="svg2"
   version="1.1"
   inkscape:version="0.48.4 r9939"
   width="170"
   height="170"
   xml:space="preserve"
   sodipodi:docname="pgrsecure_logo.svg"
   inkscape:export-filename="/home/alessandro/Immagini/pgrsecure_logo.png"
   inkscape:export-xdpi="264.70999"
   inkscape:export-ydpi="264.70999"><metadata
     id="metadata8"><rdf:RDF><cc:Work
         rdf:about=""><dc:format>image/svg+xml</dc:format><dc:type
           rdf:resource="http://purl.org/dc/dcmitype/StillImage" /><dc:title></dc:title></cc:Work></rdf:RDF></metadata><defs
     id="defs6" /><sodipodi:namedview
     pagecolor="#ffffff"
     bordercolor="#666666"
     borderopacity="1"
     objecttolerance="10"
     gridtolerance="10"
     guidetolerance="10"
     inkscape:pageopacity="0"
     inkscape:pageshadow="2"
     inkscape:window-width="1229"
     inkscape:window-height="1000"
     id="namedview4"
     showgrid="false"
     inkscape:zoom="1.0818864"
     inkscape:cx="83.70625"
     inkscape:cy="109.06875"
     inkscape:window-x="51"
     inkscape:window-y="24"
     inkscape:window-maximized="1"
     inkscape:current-layer="g10" /><g
     id="g10"
     inkscape:groupmode="layer"
     inkscape:label="ink_ext_XXXXXX"
     transform="matrix(1.25,0,0,-1.25,0,170)"><g
       id="g12"
       transform="matrix(0.06777123,0,0,0.06777123,22.618027,8.8655356)"><path
         d="m 1065.17,590.359 c -0.27,0.282 -0.63,0.45 -1.02,0.411 -1.54,-0.11 -154.775,-12.301 -160.849,-142.559 -0.031,-0.66 0.461,-1.231 1.125,-1.301 0.125,-0.019 3.289,-0.34 8.75,-0.34 30.332,0 130.944,10.301 152.294,142.75 0.07,0.379 -0.05,0.758 -0.3,1.039"
         style="fill:#94d565;fill-opacity:1;fill-rule:nonzero;stroke:none"
         id="path14"
         inkscape:connector-curvature="0" /><path
         d="m 190.293,1080.97 c -0.395,0.07 -0.813,-0.03 -1.105,-0.3 -0.297,-0.28 -0.442,-0.68 -0.387,-1.08 0.168,-1.3 17.945,-130.328 115.73,-130.344 0.004,0 0.008,0 0.016,0 6.723,0 13.773,0.613 20.957,1.836 0.656,0.113 1.117,0.727 1.027,1.391 -0.136,1.031 -14.894,103.337 -136.238,128.497"
         style="fill:#94d565;fill-opacity:1;fill-rule:nonzero;stroke:none"
         id="path16"
         inkscape:connector-curvature="0" /><path
         d="m 18.4688,316.828 c -0.4063,0.113 -0.8125,-0.027 -1.1055,-0.297 -0.2969,-0.269 -0.4414,-0.672 -0.3906,-1.07 0.1445,-1.152 15.6562,-113.699 100.9923,-113.711 0.004,0 0.008,0 0.015,0 5.868,0 12.02,0.531 18.286,1.602 0.66,0.097 1.117,0.718 1.031,1.386 -0.117,0.903 -13.004,90.16 -118.8282,112.09"
         style="fill:#94d565;fill-opacity:1;fill-rule:nonzero;stroke:none"
         id="path18"
         inkscape:connector-curvature="0" /><path
         d="m 729.855,1161.77 c -1.242,0 -123.941,-1.31 -127.835,-114.24 -0.024,-0.66 0.476,-1.22 1.132,-1.29 0,0 1.442,-0.13 4.028,-0.13 l 0.004,0 c 15.254,0 92.882,5.5 123.871,114.07 0.105,0.37 0.031,0.77 -0.203,1.09 -0.239,0.31 -0.61,0.5 -0.997,0.5"
         style="fill:#94d565;fill-opacity:1;fill-rule:nonzero;stroke:none"
         id="path20"
         inkscape:connector-curvature="0" /><path
         d="m 879.055,1061 c 14.578,49.46 52.39,66.5 72.742,72.2 -12.957,-57.36 -51.731,-69.79 -72.742,-72.2 z m -41.758,-506.289 -0.012,0 c -64.519,0.008 -81.719,57.168 -86.211,83.348 61.231,-13.739 83.739,-61.528 90.946,-83.25 -1.598,-0.059 -3.172,-0.098 -4.723,-0.098 z M 976.824,1662.43 c -13.554,-79.86 -71.394,-92.03 -96.707,-93.44 8.938,66.96 69.738,87.56 96.707,93.44 z m -13.543,-506.59 c -0.781,-0.07 -69.355,-7.39 -97.89,-74.14 -2.996,78.99 -4.434,170.86 -2.508,258.33 3.152,143.57 14.668,193.67 14.91,194.68 1.191,4.84 1.008,9.65 -0.098,14.18 24.278,0.79 109.5,11.69 120.789,124.66 0.293,2.98 -0.757,5.94 -2.879,8.06 -2.121,2.13 -5.117,3.19 -8.054,2.89 -1.196,-0.12 -115.531,-12.7 -127.531,-114.98 -1.321,0.54 -2.625,1.1 -4.051,1.46 -16.02,4.02 -32.364,-5.72 -36.399,-21.79 -0.547,-2.15 -13.308,-54.57 -16.672,-207.84 -3.355,-152.33 3.313,-318.38 10.93,-408.198 1.985,-23.386 4.727,-54.593 7.813,-89.699 6.601,-75.078 15.117,-172.004 20.808,-245.512 -17.781,26.579 -48.75,55.161 -101.57,62.227 -3.008,0.41 -5.918,-0.527 -8.098,-2.547 -2.176,-2 -3.355,-4.883 -3.218,-7.84 1.902,-39.793 26.875,-115.062 107.722,-115.07 l 0.012,0 c 3.133,0 6.355,0.129 9.629,0.359 C 859.348,340.078 853.633,171.879 829.844,35.1406 827.012,18.8281 837.938,3.28906 854.27,0.449219 856.008,0.140625 857.734,0 859.441,0 c 14.309,0.0117188 26.985,10.2813 29.524,24.8711 25.019,143.8589 30.808,320.3279 17.187,524.4879 -4.922,73.871 -16.379,204.196 -24.746,299.348 -3.078,35.031 -5.808,66.176 -7.793,89.516 -2.343,27.64 -4.59,62.647 -6.472,102.297 0.75,-0.02 1.668,-0.05 2.871,-0.05 15.039,0 90.703,5.02 104.109,104.07 0.41,3.02 -0.586,6.06 -2.695,8.26 -2.11,2.2 -5.031,3.33 -8.145,3.04"
         style="fill:#e96851;fill-opacity:1;fill-rule:nonzero;stroke:none"
         id="path22"
         inkscape:connector-curvature="0" /><path
         d="m 684.52,192.48 c 14.113,47.598 62.746,66.25 87.843,72.821 -22.109,-69.082 -67.324,-74.41 -87.843,-72.821 z M 569.727,771.52 c -0.004,0 -0.008,0 -0.008,0 -44.871,0.011 -72.285,41.73 -84.129,65.109 52.109,-9.832 76.144,-46.184 85.316,-65.098 -0.394,-0.011 -0.789,-0.011 -1.179,-0.011 z m -109.524,645.76 c 81.098,-25.69 102.277,-78.66 107.672,-100.67 -69.535,-2.26 -98.219,68.14 -107.672,100.67 z M 729.695,859.098 c -20.41,-65.067 -62.757,-79.657 -83.933,-82.801 11.133,50.906 58.457,73.926 83.933,82.801 z M 793.84,285.09 c -2.18,2.441 -5.363,3.621 -8.684,3.262 -3.957,-0.481 -88.828,-11.743 -116.238,-79.813 2.801,43.332 4.559,90.461 3.973,137.52 -1.282,101.89 -11.27,196.839 -20.938,288.66 -3.168,30.109 -6.332,60.179 -9.195,90.449 -1.039,10.992 -1.981,21.07 -2.848,30.484 20.192,1.426 90.727,13.782 113.774,115.743 0.75,3.316 -0.239,6.781 -2.621,9.207 -2.391,2.433 -5.836,3.472 -9.161,2.793 -0.906,-0.184 -76.558,-16.551 -106.504,-76.836 -3.21,38.125 -5.375,69.058 -8.921,119.957 -2.106,30.152 -4.704,67.336 -8.293,117.124 -12.641,175.3 21.511,275.22 21.859,276.21 5.508,15.58 -2.633,32.7 -18.211,38.25 -15.602,5.55 -32.769,-2.58 -38.332,-18.19 -0.133,-0.36 -0.516,-1.48 -1.074,-3.2 -12.266,32.12 -45.258,82.68 -133.598,104.53 -3.277,0.8 -6.738,-0.08 -9.211,-2.38 -2.469,-2.29 -3.617,-5.68 -3.051,-9.01 0.231,-1.33 23.985,-133.3 127.668,-133.31 2.579,0 5.286,0.36 7.934,0.52 -10.305,-48.21 -22.613,-135.9 -13.828,-257.73 3.586,-49.736 6.176,-86.877 8.281,-116.994 3.574,-51.195 5.746,-82.328 8.977,-120.695 -17.969,24.566 -50.52,53.367 -105.625,57.097 -3.356,0.215 -6.59,-1.25 -8.625,-3.918 -2.035,-2.664 -2.598,-6.179 -1.493,-9.343 1.333,-3.848 33.567,-93.946 109.864,-93.957 0,0 0.004,0 0.008,0 3.371,0 6.8,0.246 10.253,0.605 0.918,-10.016 1.922,-20.773 3.043,-32.594 2.879,-30.48 6.071,-60.761 9.262,-91.082 9.524,-90.48 19.363,-184.031 20.606,-283.129 C 614.57,210.43 596.34,74.3398 590.707,35.8594 588.313,19.4609 599.652,4.23047 616.051,1.82031 c 1.469,-0.21093 2.933,-0.30859 4.379,-0.30859 14.644,0 27.461,10.72658 29.644,25.66018 3.332,22.7969 10.961,78.9061 16.508,148.9691 0.906,-0.641 1.91,-1.192 3.043,-1.5 0.867,-0.25 8.852,-2.391 20.773,-2.391 30.215,0 84.114,13.5 105.707,103.852 0.758,3.187 -0.089,6.539 -2.265,8.988"
         style="fill:#78a8de;fill-opacity:1;fill-rule:nonzero;stroke:none"
         id="path24"
         inkscape:connector-curvature="0" /><path
         d="m 447.656,354.469 c -2.691,0 -5.152,0.109 -7.308,0.261 14.05,55.411 72.781,75.61 99.925,82.079 -16.742,-71.239 -64.519,-82.34 -92.617,-82.34 z m -110.019,10.691 -0.004,0 c -58.742,0 -82.477,52.442 -90.106,75.641 3.004,0.199 5.957,0.308 8.844,0.308 64.645,0 89.852,-52.238 97.692,-74.679 -5.657,-0.852 -11.149,-1.27 -16.426,-1.27 z m 139.996,830.34 c -14.606,-57.72 -54.094,-64.69 -74.629,-63.95 11.523,41.71 52.582,58.07 74.629,63.95 z m 82.508,-739.129 c -2.172,2.258 -5.293,3.367 -8.399,3 -1.035,-0.121 -90.324,-11.652 -122.824,-78 -3.16,42.469 -9.023,70.758 -14.172,95.457 -2.734,13.141 -5.098,24.481 -6.558,36.184 -1.68,13.398 -3.985,30.16 -6.625,49.34 -11.368,82.589 -28.555,207.382 -28.543,304.531 0.007,123.418 18.527,241.357 18.718,242.537 0.164,1.05 0.121,2.07 0.176,3.1 2.922,-0.46 7.594,-1.02 13.809,-1.02 23.871,0 80.863,9.29 94.609,95.31 0.496,3.12 -0.504,6.28 -2.695,8.54 -2.192,2.26 -5.324,3.34 -8.457,2.95 -0.918,-0.11 -87.41,-12.28 -105.727,-83.23 -4.348,4.44 -10.031,7.64 -16.633,8.69 -16.324,2.6 -31.73,-8.55 -34.34,-24.91 -0.792,-4.99 -19.453,-123.631 -19.46,-251.967 -0.012,-101.262 17.511,-228.504 29.105,-312.711 2.602,-18.902 4.871,-35.391 6.523,-48.613 1.766,-14.11 4.481,-27.149 7.36,-40.957 4.453,-21.391 9.484,-45.672 12.504,-81.063 -13.141,29.57 -44.828,77.57 -112.141,77.57 -7.441,0 -15.215,-0.589 -23.113,-1.781 -2.727,-0.406 -5.16,-1.918 -6.731,-4.18 -1.57,-2.257 -2.14,-5.07 -1.578,-7.769 0.215,-1.008 22.524,-102.219 112.68,-102.219 0,0 0.004,0 0.008,0 9.996,0 20.566,1.27 31.406,3.781 0.566,0.129 1.008,0.477 1.527,0.7 2.453,-64.282 -1.414,-159.493 -20.586,-314.4496 -2.035,-16.4414 9.645,-31.41015 26.09,-33.45312 1.25,-0.16015 2.489,-0.22656 3.723,-0.22656 14.922,0 27.855,11.11718 29.73,26.31638 18.024,145.6519 22.821,240.9099 21.481,307.7929 3.762,-0.531 9.519,-1.152 16.648,-1.152 l 0.004,0 c 29.176,0 98.793,11.062 115.145,113.39 0.496,3.102 -0.492,6.25 -2.664,8.512"
         style="fill:#e98a19;fill-opacity:1;fill-rule:nonzero;stroke:none"
         id="path26"
         inkscape:connector-curvature="0" /><path
         d="m 148.051,565.969 c 8.957,60.261 59.777,74.23 82.07,77.472 -1.367,-20.32 -8.273,-37.023 -20.601,-49.742 C 190.703,574.27 163.262,568 148.051,565.969 z M 23.9219,972.59 c 23.2656,-3.27 40.7656,-11.902 52.1328,-25.75 13.6172,-16.578 15.4726,-37.215 15.3437,-48.231 -37.4257,0.715 -59,49.504 -67.4765,73.981 z M 250.328,654.648 c -0.137,5.481 -4.832,10.082 -10.152,9.75 -0.918,-0.019 -78.965,-2.187 -105.059,-69.269 -15.531,168.16 16.246,294.848 16.817,297.082 4.171,16.023 -5.434,32.406 -21.465,36.586 -7.836,2.043 -15.742,0.754 -22.285,-2.942 -2.762,10.879 -7.704,22.692 -16.5082,33.477 C 74.332,980.594 47.0078,992.215 10.4531,993.875 7.33203,993.93 4.27734,992.668 2.27344,990.23 0.273438,987.801 -0.464844,984.563 0.289063,981.508 1.29297,977.398 25.1172,883.262 87.6484,878.816 75.332,814.996 52.7734,651.961 95.2773,462.449 141.84,254.859 121.504,95.75 110.602,36.9805 107.578,20.6914 118.336,5.03906 134.625,2.01953 136.477,1.67188 138.316,1.5 140.133,1.5 c 14.176,0.01172 26.781,10.1016 29.461,24.5391 11.578,62.4101 33.219,231.1329 -15.77,449.5309 -5.304,23.641 -9.461,46.86 -12.75,69.551 13.074,0.68 54.434,5.449 82.699,34.551 18.379,18.898 27.317,44.137 26.555,74.976"
         style="fill:#ef55a0;fill-opacity:1;fill-rule:nonzero;stroke:none"
         id="path28"
         inkscape:connector-curvature="0" /><path
         d="m 1153.11,85.1289 0,-23.3203 84.62,0 c 2.14,6.332 3.22,14.1133 3.22,23.3203 0,14.1602 -3.66,25.3591 -10.94,33.5621 -7.3,8.207 -17.27,12.297 -29.92,12.297 -13.63,0 -24.87,-4.07 -33.72,-12.218 -8.83,-8.161 -13.26,-19.3598 -13.26,-33.6411 z m -7.25,-69.8203 0,68.8711 c 0,22.5193 4.98,40.3593 14.97,53.4923 9.96,13.148 22.84,19.707 38.61,19.707 15.67,0 27.7,-5.731 36.13,-17.207 8.42,-11.481 12.63,-27.953 12.63,-49.3907 0,-8.2618 -0.64,-17.9297 -1.92,-28.9727 l 52.87,0 c 11.39,0 19.23,1.5312 23.54,4.5898 4.29,3.0508 6.44,8.6602 6.44,16.8204 l 5.48,0 0,-67.9102 -5.48,0 c 0,8.1523 -2.25,13.7617 -6.77,16.8203 -4.51,3.0508 -12.02,4.5899 -22.56,4.5899 l -118.35,0 c -11.27,0 -19.13,-1.5391 -23.51,-4.5899 -4.4,-3.0586 -6.61,-8.668 -6.61,-16.8203 l -5.47,0"
         style="fill:#696f7a;fill-opacity:1;fill-rule:nonzero;stroke:none"
         id="path30"
         inkscape:connector-curvature="0" /><path
         d="m 1252.87,375.121 5.46,0 c 0,-8.371 1.9,-14.351 5.73,-17.941 3.81,-3.602 10.39,-5.391 19.74,-5.391 l 50.79,0 c 1.18,-4.398 2.26,-12.641 3.23,-24.699 0.96,-12.059 1.45,-21.442 1.45,-28.078 0,-34.864 -8.59,-62.032 -25.75,-81.492 -17.16,-19.481 -39.79,-29.211 -67.89,-29.211 -19.64,0 -37.33,4.269 -53.11,12.781 -15.75,8.539 -28.25,20.449 -37.48,35.73 -9.23,15.289 -13.85,31.508 -13.85,48.68 0,10.289 1.83,21.5 5.48,33.629 2.24,7.711 3.37,13.609 3.37,17.691 0,5.371 -2.08,8.91 -6.27,10.629 l 0,5.961 55.67,0 0,-5.332 c -15.45,-2.129 -27.81,-9.137 -37.1,-20.988 -9.26,-11.86 -13.9,-25.719 -13.9,-41.59 0,-19.961 7.97,-36.309 23.9,-49.09 15.91,-12.75 36.48,-19.148 61.7,-19.148 27.68,0 50.64,7.398 68.87,22.136 18.24,14.75 27.34,33.274 27.34,55.59 0,21.133 -6.71,31.703 -20.16,31.703 l -20.48,0 c -11.6,0 -19.72,-1.531 -24.34,-4.589 -4.63,-3.051 -6.94,-8.442 -6.94,-16.172 l 0,-7.231 -5.46,0 0,76.422"
         style="fill:#696f7a;fill-opacity:1;fill-rule:nonzero;stroke:none"
         id="path32"
         inkscape:connector-curvature="0" /><path
         d="m 1153.11,463.641 0,-19.782 86.25,0 0,23.161 c 0,13.851 -3.99,24.71 -11.93,32.589 -7.94,7.891 -18.46,11.821 -31.53,11.821 -12.77,0 -23.1,-4.36 -30.98,-13.11 -7.88,-8.742 -11.81,-20.3 -11.81,-34.679 z m 94.13,-4.5 0,-15.282 51.91,0 c 11.17,0 18.98,1.582 23.36,4.75 4.41,3.161 6.62,8.762 6.62,16.813 l 5.48,0 0,-67.902 -5.48,0 c 0,8.371 -2.21,14.019 -6.6,16.98 -4.4,2.941 -12.19,4.422 -23.36,4.422 l -118.37,0 c -11.15,0 -18.86,-1.453 -23.11,-4.344 -4.23,-2.898 -6.36,-8.59 -6.36,-17.058 l -5.47,0 0,77.39 c 0,19.09 4.65,34.36 13.92,45.781 9.27,11.43 21.1,17.129 35.46,17.129 23.18,0 38.63,-12.98 46.35,-38.941 3.64,5.699 8.66,11.262 15.03,16.699 6.41,5.434 16.99,12.551 31.84,21.363 16.44,9.879 27.2,17.59 32.33,23.149 5.13,5.558 7.9,11.32 8.34,17.32 l 5.48,0 0,-38.609 c -9.56,-7.949 -23.58,-17.539 -42.07,-28.813 -19.47,-12.008 -31.88,-21.429 -37.26,-28.238 -5.37,-6.82 -8.04,-14.359 -8.04,-22.609"
         style="fill:#696f7a;fill-opacity:1;fill-rule:nonzero;stroke:none"
         id="path34"
         inkscape:connector-curvature="0" /><path
         d="m 1143.12,770.867 0,5.313 44.25,0 0,-5.625 c -12.22,-1.289 -21.76,-5.723 -28.63,-13.282 -6.86,-7.558 -10.3,-17.093 -10.3,-28.554 0,-10.199 2.57,-18.41 7.72,-24.629 5.13,-6.219 12.02,-9.32 20.61,-9.32 7.94,0 15.16,2.57 21.71,7.718 6.55,5.153 14.97,16.301 25.26,33.473 11.9,19.945 22.32,33.344 31.21,40.219 8.92,6.855 19.09,10.293 30.59,10.293 14.79,0 27.46,-5.254 37.97,-15.743 10.5,-10.5 15.76,-23.144 15.76,-37.91 0,-8.57 -2.37,-19.492 -7.08,-32.769 -1.94,-5.473 -2.89,-8.949 -2.89,-10.449 0,-3.114 2.39,-5.512 7.23,-7.231 l 0,-5.621 -50.99,0 0,5.621 c 14.04,0.109 25.31,4.688 33.77,13.731 8.49,9.046 12.72,19.617 12.72,31.718 0,11.461 -3.07,20.645 -9.19,27.539 -6.12,6.914 -14.28,10.364 -24.47,10.364 -7.64,0 -14.92,-2.844 -21.91,-8.52 -6.98,-5.672 -15.97,-17.523 -26.97,-35.574 -9.09,-14.707 -16.27,-24.527 -21.53,-29.457 -5.25,-4.942 -11.03,-8.57 -17.3,-10.934 -6.28,-2.367 -13.17,-3.539 -20.69,-3.539 -14.47,0 -26.24,4.75 -35.24,14.242 -9.03,9.489 -13.54,21.86 -13.54,37.09 0,8.367 1.67,17.481 4.99,27.364 1.5,4.609 2.26,7.824 2.26,9.648 0,1.504 -0.32,2.52 -0.98,3.055 -0.63,0.539 -2.08,1.125 -4.34,1.769"
         style="fill:#696f7a;fill-opacity:1;fill-rule:nonzero;stroke:none"
         id="path36"
         inkscape:connector-curvature="0" /><path
         d="m 1217.31,928.414 0,5.637 45.85,0 0,-5.637 c -8.05,-2.035 -13.08,-4.5 -15.13,-7.391 -2.02,-2.906 -3.04,-9.234 -3.04,-18.996 l 0,-46.812 67.57,0 c 4.73,0 8.04,1.043 9.97,3.133 1.93,2.09 2.91,5.664 2.91,10.703 l 0,32.976 c 0,11.805 -0.65,19.957 -1.93,24.461 -1.29,4.504 -3.69,8.321 -7.18,11.43 -3.47,3.109 -9.13,6.434 -16.96,9.977 l 0,5.625 35.24,-8.684 0,-135.961 -5.48,0 c 0,8.477 -2.17,14.16 -6.52,17.051 -4.35,2.89 -12.05,4.355 -23.11,4.355 l -118.05,0 c -11.49,0 -19.39,-1.515 -23.68,-4.511 -4.29,-3.008 -6.44,-8.633 -6.44,-16.895 l -5.47,0 0,135.961 31.54,0 0,-3.543 c -9,-1.934 -15,-4.695 -17.94,-8.281 -2.96,-3.602 -4.42,-11.403 -4.42,-23.414 l 0,-54.383 80.76,0 0,52.769 c 0,7.192 -1.29,12.098 -3.87,14.731 -2.57,2.625 -7.44,4.519 -14.62,5.699"
         style="fill:#696f7a;fill-opacity:1;fill-rule:nonzero;stroke:none"
         id="path38"
         inkscape:connector-curvature="0" /><path
         d="m 1143.12,1152.75 56.32,0 0,-5.63 c -17.49,-4.51 -30.37,-11.72 -38.61,-21.64 -8.27,-9.93 -12.39,-23.15 -12.39,-39.66 0,-21.46 7.72,-38.46 23.17,-51.01 15.45,-12.55 36.05,-18.83 61.79,-18.83 28.2,0 50.93,6.63 68.12,19.87 17.23,13.26 25.84,30.6 25.84,52.06 0,29.71 -13.84,51.64 -41.51,65.8 l 4.66,4.99 c 15.01,-6.32 26.89,-16.54 35.64,-30.65 8.75,-14.11 13.12,-30.17 13.12,-48.19 0,-17.06 -4.03,-32.85 -12.08,-47.38 -8.04,-14.54 -19.11,-25.75 -33.21,-33.64 -14.13,-7.875 -30.33,-11.824 -48.69,-11.824 -30.03,0 -54.89,9.226 -74.58,27.674 -19.67,18.45 -29.52,41.73 -29.52,69.84 0,9.43 1.67,21.4 4.99,35.88 1.94,8.15 2.9,13.78 2.9,16.9 0,4.82 -1.98,8.2 -5.96,10.13 l 0,5.31"
         style="fill:#696f7a;fill-opacity:1;fill-rule:nonzero;stroke:none"
         id="path40"
         inkscape:connector-curvature="0" /><path
         d="m 1295.02,1331.71 -113.59,0 c -11.07,0 -18.74,-1.48 -23.1,-4.43 -4.35,-2.96 -6.68,-8.18 -7,-15.69 l -5.47,0 0,66.62 5.47,0 c 0,-8.05 2.21,-13.63 6.61,-16.74 4.38,-3.11 12.24,-4.66 23.51,-4.66 l 117.72,0 c 11.05,0 18.81,1.52 23.29,4.58 4.44,3.06 6.67,8.66 6.67,16.82 l 5.48,0 0,-46.5 -26.4,0 c 20.7,-17.71 31.06,-38.67 31.06,-62.92 0,-19.95 -5.95,-35.64 -17.87,-47.06 -11.9,-11.43 -27.61,-17.15 -47.14,-17.15 l -92.83,0 c -11.27,0 -19.11,-1.47 -23.51,-4.41 -4.38,-2.96 -6.59,-8.62 -6.59,-16.98 l -5.47,0 0,68.22 5.47,0 c 0,-8.47 2.15,-14.21 6.43,-17.22 4.3,-3.01 12.08,-4.51 23.33,-4.51 l 95.59,0 c 15.44,0 27.6,4.25 36.44,12.73 8.84,8.47 13.28,20.27 13.28,35.39 0,22.42 -10.46,40.39 -31.38,53.91"
         style="fill:#696f7a;fill-opacity:1;fill-rule:nonzero;stroke:none"
         id="path42"
         inkscape:connector-curvature="0" /><path
         d="m 1153.11,1469.46 0,-19.78 86.25,0 0,23.16 c 0,13.84 -3.99,24.71 -11.93,32.58 -7.94,7.89 -18.46,11.83 -31.53,11.83 -12.77,0 -23.1,-4.37 -30.98,-13.11 -7.88,-8.74 -11.81,-20.3 -11.81,-34.68 z m 94.13,-4.51 0,-15.27 51.91,0 c 11.17,0 18.98,1.57 23.36,4.75 4.41,3.15 6.62,8.76 6.62,16.8 l 5.48,0 0,-67.9 -5.48,0 c 0,8.37 -2.21,14.03 -6.6,16.99 -4.4,2.93 -12.19,4.42 -23.36,4.42 l -118.37,0 c -11.15,0 -18.86,-1.45 -23.11,-4.35 -4.23,-2.9 -6.36,-8.58 -6.36,-17.06 l -5.47,0 0,77.4 c 0,19.09 4.65,34.35 13.92,45.78 9.27,11.42 21.1,17.13 35.46,17.13 23.18,0 38.63,-12.98 46.35,-38.94 3.64,5.7 8.66,11.26 15.03,16.7 6.41,5.43 16.99,12.55 31.84,21.35 16.44,9.89 27.2,17.59 32.33,23.15 5.13,5.56 7.9,11.33 8.34,17.33 l 5.48,0 0,-38.62 c -9.56,-7.94 -23.58,-17.54 -42.07,-28.81 -19.47,-12.01 -31.88,-21.43 -37.26,-28.23 -5.37,-6.82 -8.04,-14.36 -8.04,-22.62"
         style="fill:#696f7a;fill-opacity:1;fill-rule:nonzero;stroke:none"
         id="path44"
         inkscape:connector-curvature="0" /><path
         d="m 1217.31,1720.02 0,5.63 45.85,0 0,-5.63 c -8.05,-2.04 -13.08,-4.5 -15.13,-7.39 -2.02,-2.91 -3.04,-9.24 -3.04,-18.99 l 0,-46.83 67.57,0 c 4.73,0 8.04,1.05 9.97,3.14 1.93,2.09 2.91,5.66 2.91,10.7 l 0,32.99 c 0,11.79 -0.65,19.95 -1.93,24.45 -1.29,4.5 -3.69,8.32 -7.18,11.43 -3.47,3.11 -9.13,6.43 -16.96,9.98 l 0,5.62 35.24,-8.68 0,-135.96 -5.48,0 c 0,8.47 -2.17,14.16 -6.52,17.05 -4.35,2.89 -12.05,4.35 -23.11,4.35 l -118.05,0 c -11.49,0 -19.39,-1.51 -23.68,-4.5 -4.29,-3.02 -6.44,-8.65 -6.44,-16.9 l -5.47,0 0,135.96 31.54,0 0,-3.55 c -9,-1.93 -15,-4.69 -17.94,-8.28 -2.96,-3.6 -4.42,-11.4 -4.42,-23.41 l 0,-54.39 80.76,0 0,52.78 c 0,7.18 -1.29,12.09 -3.87,14.72 -2.57,2.63 -7.44,4.53 -14.62,5.71"
         style="fill:#696f7a;fill-opacity:1;fill-rule:nonzero;stroke:none"
         id="path46"
         inkscape:connector-curvature="0" /></g></g></svg>