<?xml version="1.0" encoding="UTF-8" standalone="no"?>
<!-- Generator: Adobe Illustrator 16.0.0, SVG Export Plug-In . SVG Version: 6.00 Build 0)  -->

<svg
   xmlns:dc="http://purl.org/dc/elements/1.1/"
   xmlns:cc="http://creativecommons.org/ns#"
   xmlns:rdf="http://www.w3.org/1999/02/22-rdf-syntax-ns#"
   xmlns:svg="http://www.w3.org/2000/svg"
   xmlns="http://www.w3.org/2000/svg"
   xmlns:sodipodi="http://sodipodi.sourceforge.net/DTD/sodipodi-0.dtd"
   xmlns:inkscape="http://www.inkscape.org/namespaces/inkscape"
   version="1.1"
   id="Capa_1"
   x="0px"
   y="0px"
   width="77.408px"
   height="77.408px"
   viewBox="0 0 77.408 77.408"
   style="enable-background:new 0 0 77.408 77.408;"
   xml:space="preserve"
   inkscape:version="0.48.4 r9939"
   sodipodi:docname="cm.svg"><metadata
     id="metadata3181"><rdf:RDF><cc:Work
         rdf:about=""><dc:format>image/svg+xml</dc:format><dc:type
           rdf:resource="http://purl.org/dc/dcmitype/StillImage" /></cc:Work></rdf:RDF></metadata><defs
     id="defs3179" /><sodipodi:namedview
     pagecolor="#ffffff"
     bordercolor="#666666"
     borderopacity="1"
     objecttolerance="10"
     gridtolerance="10"
     guidetolerance="10"
     inkscape:pageopacity="0"
     inkscape:pageshadow="2"
     inkscape:window-width="1629"
     inkscape:window-height="1026"
     id="namedview3177"
     showgrid="false"
     inkscape:zoom="3.0487806"
     inkscape:cx="-24.271999"
     inkscape:cy="38.703999"
     inkscape:window-x="51"
     inkscape:window-y="24"
     inkscape:window-maximized="1"
     inkscape:current-layer="Capa_1" /><g
     id="g3133"
     style="fill:#333333;fill-opacity:1"><g
       id="g3135"
       style="fill:#333333;fill-opacity:1"><path
         d="M2.309,40.489c-0.554,0-1,0.448-1,1c0,0.553,0.446,1,1,1h10.919h48.387c0.008,0.001,0.016,0,0.021,0h7.829    c0.556,0,1-0.447,1-1c0-0.552-0.444-1-1-1h-7.301l-6.446-10.103c0.016,0.001,0.028,0.008,0.043,0.008    c0.053,0,0.104-0.004,0.153-0.012c6.824-1.058,11.777-6.845,11.777-13.761c0-7.679-6.248-13.926-13.928-13.926    c-4.748,0-9.113,2.403-11.672,6.339l-5.472-8.572c-0.188-0.296-0.479-0.478-0.873-0.461c-0.352,0.01-0.672,0.205-0.844,0.513    L26.94,14.806c-0.622-3.265-3.494-5.742-6.938-5.742c-0.598,0-1.185,0.074-1.756,0.221c-1.107-2.541-3.63-4.24-6.452-4.24    c-3.896,0-7.064,3.17-7.064,7.065c0,0.873,0.162,1.728,0.475,2.531c-2.617,0.453-4.613,2.741-4.613,5.486    c0,2.771,2.014,5.074,4.732,5.48c0.124,0.056,0.262,0.086,0.406,0.086h13.204c0.745,0,1.459-0.133,2.138-0.349l-8.435,15.144    L2.309,40.489L2.309,40.489z M6.026,23.694c-0.063-0.021-0.13-0.032-0.198-0.039c-1.844-0.174-3.232-1.69-3.232-3.527    c0-1.967,1.601-3.568,3.566-3.568c0.191,0,0.375,0.031,0.56,0.061c0.394,0.063,0.796-0.12,1.007-0.463    c0.212-0.343,0.197-0.779-0.038-1.107c-0.625-0.872-0.955-1.888-0.955-2.939c0-2.793,2.272-5.065,5.065-5.065    c2.274,0,4.277,1.546,4.87,3.76c0.074,0.279,0.268,0.513,0.527,0.64c0.259,0.127,0.563,0.136,0.829,0.021    c0.629-0.268,1.295-0.402,1.98-0.402c2.793,0,5.064,2.273,5.064,5.066c0,1.063-0.341,2.091-0.985,2.974    c-0.09,0.123-0.149,0.266-0.177,0.415c-0.431,2.419-2.521,4.175-4.975,4.175L6.026,23.694L6.026,23.694z M53.764,4.696    c6.575,0,11.928,5.351,11.928,11.926c0,5.826-4.336,10.893-10.084,11.783c-0.358,0.057-0.631,0.306-0.76,0.62l-9.069-14.217    c-0.003-0.001-0.003-0.002-0.003-0.003s-0.002-0.001-0.002-0.002l-2.478-3.882C45.391,7.081,49.389,4.696,53.764,4.696z     M35.837,2.952l7.727,12.106l-2.383,1.56l-3.851-3.728c-0.036-0.035-0.083-0.05-0.122-0.078c-0.055-0.039-0.105-0.08-0.167-0.106    c-0.06-0.027-0.122-0.04-0.186-0.055c-0.062-0.014-0.12-0.029-0.182-0.031c-0.066-0.004-0.129,0.009-0.193,0.02    c-0.063,0.01-0.122,0.017-0.182,0.039c-0.063,0.023-0.117,0.059-0.177,0.095c-0.042,0.026-0.089,0.037-0.128,0.069l-4.558,3.798    l-2.335-1.596L35.837,2.952z M28.125,16.797l2.808,1.919c0.031,0.021,0.068,0.032,0.103,0.049    c0.031,0.016,0.061,0.032,0.093,0.045c0.12,0.048,0.243,0.08,0.368,0.08h0.001c0,0,0,0,0.001,0s0.003-0.001,0.004-0.001    c0.1-0.001,0.196-0.021,0.291-0.05c0.027-0.008,0.053-0.019,0.078-0.029c0.084-0.034,0.164-0.078,0.237-0.135    c0.009-0.007,0.021-0.009,0.03-0.018l4.447-3.706l3.78,3.657c0.002,0.003,0.006,0.004,0.01,0.007    c0.084,0.08,0.183,0.14,0.285,0.185c0.023,0.011,0.049,0.02,0.072,0.028c0.104,0.035,0.215,0.061,0.324,0.062    c0.002,0,0.002,0,0.002,0l0,0c0,0,0,0,0.002,0c0.115,0,0.229-0.027,0.34-0.068c0.033-0.012,0.062-0.027,0.096-0.044    c0.037-0.018,0.076-0.028,0.111-0.052l3.029-1.983l15.148,23.745h-17.06v-5.216l1.776,1.507c0.188,0.159,0.418,0.237,0.646,0.237    c0.285,0,0.565-0.12,0.767-0.354c0.354-0.422,0.307-1.053-0.115-1.41l-3.07-2.604v-2.831l1.719,1.72    c0.195,0.194,0.451,0.293,0.707,0.293s0.512-0.099,0.707-0.293c0.391-0.392,0.391-1.024,0-1.414l-3.133-3.133v-2.475l1.68,1.888    c0.197,0.223,0.471,0.335,0.746,0.335c0.234,0,0.475-0.083,0.664-0.252c0.414-0.366,0.451-0.999,0.084-1.411l-3.426-3.854    c-0.01-0.007-0.02-0.01-0.023-0.017c-0.053-0.057-0.119-0.095-0.182-0.138c-0.045-0.029-0.086-0.067-0.135-0.09    c-0.012-0.004-0.02-0.011-0.025-0.015c-0.057-0.023-0.115-0.024-0.174-0.036c-0.062-0.013-0.117-0.033-0.182-0.035    c-0.066-0.002-0.129,0.015-0.191,0.026c-0.064,0.01-0.123,0.014-0.188,0.036c-0.012,0.004-0.021,0.005-0.033,0.01    c-0.062,0.024-0.105,0.067-0.158,0.103c-0.041,0.026-0.088,0.039-0.125,0.072c-0.008,0.007-0.01,0.016-0.018,0.023    s-0.021,0.011-0.025,0.018l-3.853,3.853c-0.391,0.392-0.391,1.023,0,1.414c0.195,0.195,0.451,0.293,0.707,0.293    s0.513-0.098,0.707-0.293l2.146-2.146v2.646l-3.505,3.02c-0.419,0.36-0.467,0.992-0.105,1.41c0.198,0.229,0.479,0.348,0.758,0.348    c0.231,0,0.464-0.08,0.652-0.242l2.2-1.896v3.029l-3.454,2.604c-0.441,0.333-0.529,0.959-0.197,1.4    c0.196,0.261,0.496,0.397,0.8,0.397c0.209,0,0.421-0.064,0.602-0.201l2.252-1.695v5.368H30.643v-2.219l1.778,1.507    c0.188,0.16,0.418,0.238,0.646,0.238c0.284,0,0.566-0.121,0.764-0.354c0.357-0.422,0.306-1.055-0.115-1.411l-3.072-2.603v-2.832    l1.719,1.72c0.195,0.194,0.451,0.293,0.707,0.293c0.256,0,0.512-0.099,0.707-0.293c0.391-0.392,0.391-1.023,0-1.414l-3.133-3.134    V27.51l1.679,1.888c0.197,0.223,0.472,0.335,0.747,0.335c0.236,0,0.474-0.083,0.664-0.252c0.413-0.366,0.45-0.999,0.083-1.412    l-3.426-3.854c-0.007-0.007-0.017-0.01-0.023-0.017c-0.051-0.055-0.114-0.092-0.176-0.133c-0.048-0.031-0.09-0.072-0.142-0.096    c-0.01-0.004-0.017-0.01-0.025-0.013c-0.051-0.021-0.105-0.021-0.158-0.033c-0.065-0.015-0.129-0.037-0.197-0.038    c-0.061-0.002-0.118,0.015-0.18,0.024c-0.065,0.01-0.132,0.014-0.195,0.038c-0.012,0.004-0.022,0.005-0.034,0.01    c-0.06,0.023-0.104,0.067-0.157,0.102c-0.041,0.027-0.087,0.039-0.125,0.073c-0.008,0.007-0.01,0.016-0.018,0.023    c-0.008,0.007-0.019,0.011-0.025,0.018l-3.854,3.854c-0.391,0.392-0.391,1.023,0,1.414c0.195,0.195,0.451,0.293,0.707,0.293    s0.513-0.098,0.707-0.293l2.146-2.146v2.646l-3.506,3.02c-0.419,0.359-0.467,0.992-0.105,1.41    c0.198,0.229,0.479,0.348,0.758,0.348c0.231,0,0.464-0.08,0.652-0.242l2.201-1.896v3.029l-3.455,2.603    c-0.441,0.332-0.529,0.958-0.197,1.4c0.196,0.262,0.496,0.397,0.8,0.397c0.209,0,0.42-0.064,0.602-0.201l2.252-1.695v2.371H14.93    L28.125,16.797z"
         id="path3137"
         style="fill:#333333;fill-opacity:1" /><path
         d="M5.376,51.458c0.257,0,0.513-0.098,0.707-0.293l2.79-2.789l2.54,2.539c0.195,0.195,0.451,0.293,0.707,0.293    s0.513-0.098,0.707-0.293l3.147-3.146l2.896,2.896c0.195,0.195,0.451,0.293,0.707,0.293s0.513-0.098,0.707-0.293    c0.392-0.39,0.392-1.021,0-1.414l-3.604-3.604c-0.392-0.392-1.023-0.392-1.414,0l-3.147,3.146l-2.54-2.539    c-0.391-0.393-1.022-0.393-1.414,0L4.668,49.75c-0.391,0.394-0.391,1.021,0,1.414C4.865,51.36,5.122,51.458,5.376,51.458z"
         id="path3139"
         style="fill:#333333;fill-opacity:1" /><path
         d="M53.514,72.421c0.258,0,0.515-0.099,0.707-0.293l2.791-2.789l2.539,2.539c0.194,0.194,0.45,0.293,0.707,0.293    c0.256,0,0.514-0.099,0.706-0.293l3.148-3.146l2.896,2.896c0.194,0.194,0.45,0.293,0.706,0.293c0.257,0,0.515-0.099,0.707-0.293    c0.394-0.392,0.394-1.021,0-1.414l-3.604-3.604c-0.393-0.392-1.023-0.392-1.414,0l-3.146,3.146l-2.539-2.541    c-0.394-0.391-1.021-0.391-1.414,0l-3.498,3.498c-0.392,0.394-0.392,1.022,0,1.414C53.001,72.324,53.258,72.421,53.514,72.421z"
         id="path3141"
         style="fill:#333333;fill-opacity:1" /><path
         d="M61.614,77.408c0.256,0,0.512-0.098,0.707-0.293l2.789-2.79l2.541,2.54c0.193,0.195,0.451,0.293,0.707,0.293    s0.512-0.098,0.707-0.293l3.145-3.146l2.898,2.896c0.193,0.195,0.451,0.293,0.707,0.293s0.512-0.098,0.707-0.293    c0.391-0.391,0.391-1.021,0-1.413l-3.605-3.604c-0.391-0.393-1.021-0.393-1.414,0l-3.145,3.146l-2.541-2.541    c-0.393-0.391-1.023-0.391-1.414,0l-3.496,3.498c-0.393,0.392-0.393,1.021,0,1.413C61.103,77.311,61.358,77.408,61.614,77.408z"
         id="path3143"
         style="fill:#333333;fill-opacity:1" /><path
         d="M36.637,66.101c19.521,0,19.521-2.123,19.521-2.819v-5.192c0.036-0.12,0.036-0.229,0.036-0.312    c0-0.662-0.014-2.607-16.73-2.803l1.135-1.139c0.025,0.002,0.049,0.018,0.072,0.018c0.385,0,0.77-0.146,1.062-0.438l3.469-3.469    c0.586-0.587,0.586-1.536,0-2.121c-0.586-0.586-1.535-0.586-2.121,0l-3.471,3.465c-0.313,0.313-0.445,0.729-0.425,1.133    l-2.532,2.533c-13.235,0-17.483,0.979-18.849,1.824c-0.009,0-0.016-0.005-0.024-0.005c-0.553,0-1,0.447-1,1v5.031    c0,0.31,0.148,0.572,0.368,0.758c0.154,0.615,1.183,1.639,8.011,2.18l-3.925,3.926c-0.586,0.584-0.586,1.535,0,2.121    c0.293,0.293,0.677,0.438,1.061,0.438c0.385,0,0.769-0.146,1.062-0.438l4.211-4.211c0.312-0.312,0.445-0.725,0.426-1.133    l0.503-0.504C30.735,66.04,33.416,66.101,36.637,66.101z M30.438,63.993l3.417-3.418c0.894,0.01,1.823,0.02,2.814,0.02    c10.333,0,15.197-0.598,17.486-1.26v3.492c-1.484,0.565-7.918,1.271-17.521,1.271C34.387,64.101,32.32,64.059,30.438,63.993z     M52.092,57.771c-2.914,0.433-8.302,0.82-15.42,0.82c-0.28,0-0.554-0.003-0.828-0.005l1.634-1.633    C44.194,56.982,49.288,57.357,52.092,57.771z M34.639,56.964l-1.593,1.594c-5.328-0.104-9.398-0.432-11.795-0.783    C23.879,57.386,28.526,57.03,34.639,56.964z M18.776,62.536v-3.33c1.7,0.577,5.189,1.129,12.303,1.315l-3.347,3.349    c-4.838-0.267-7.951-0.72-8.752-1.097C18.928,62.684,18.855,62.605,18.776,62.536z"
         id="path3145"
         style="fill:#333333;fill-opacity:1" /></g></g><g
     id="g3147"
     style="fill:#333333;fill-opacity:1" /><g
     id="g3149"
     style="fill:#333333;fill-opacity:1" /><g
     id="g3151"
     style="fill:#333333;fill-opacity:1" /><g
     id="g3153"
     style="fill:#333333;fill-opacity:1" /><g
     id="g3155"
     style="fill:#333333;fill-opacity:1" /><g
     id="g3157"
     style="fill:#333333;fill-opacity:1" /><g
     id="g3159"
     style="fill:#333333;fill-opacity:1" /><g
     id="g3161"
     style="fill:#333333;fill-opacity:1" /><g
     id="g3163"
     style="fill:#333333;fill-opacity:1" /><g
     id="g3165"
     style="fill:#333333;fill-opacity:1" /><g
     id="g3167"
     style="fill:#333333;fill-opacity:1" /><g
     id="g3169"
     style="fill:#333333;fill-opacity:1" /><g
     id="g3171"
     style="fill:#333333;fill-opacity:1" /><g
     id="g3173"
     style="fill:#333333;fill-opacity:1" /><g
     id="g3175"
     style="fill:#333333;fill-opacity:1" /></svg>