<?xml version="1.0" encoding="UTF-8" standalone="no"?>
<!-- Generator: Adobe Illustrator 18.1.1, SVG Export Plug-In . SVG Version: 6.00 Build 0)  -->

<svg
   xmlns:dc="http://purl.org/dc/elements/1.1/"
   xmlns:cc="http://creativecommons.org/ns#"
   xmlns:rdf="http://www.w3.org/1999/02/22-rdf-syntax-ns#"
   xmlns:svg="http://www.w3.org/2000/svg"
   xmlns="http://www.w3.org/2000/svg"
   xmlns:sodipodi="http://sodipodi.sourceforge.net/DTD/sodipodi-0.dtd"
   xmlns:inkscape="http://www.inkscape.org/namespaces/inkscape"
   version="1.1"
   id="Capa_1"
   x="0px"
   y="0px"
   viewBox="0 0 612.004 612.004"
   style="enable-background:new 0 0 612.004 612.004;"
   xml:space="preserve"
   inkscape:version="0.48.4 r9939"
   width="100%"
   height="100%"
   sodipodi:docname="cwr.svg"><metadata
     id="metadata3295"><rdf:RDF><cc:Work
         rdf:about=""><dc:format>image/svg+xml</dc:format><dc:type
           rdf:resource="http://purl.org/dc/dcmitype/StillImage" /></cc:Work></rdf:RDF></metadata><defs
     id="defs3293" /><sodipodi:namedview
     pagecolor="#ffffff"
     bordercolor="#666666"
     borderopacity="1"
     objecttolerance="10"
     gridtolerance="10"
     guidetolerance="10"
     inkscape:pageopacity="0"
     inkscape:pageshadow="2"
     inkscape:window-width="1629"
     inkscape:window-height="1026"
     id="namedview3291"
     showgrid="false"
     inkscape:zoom="0.38561839"
     inkscape:cx="-191.89956"
     inkscape:cy="306.002"
     inkscape:window-x="51"
     inkscape:window-y="24"
     inkscape:window-maximized="1"
     inkscape:current-layer="Capa_1" /><g
     id="g3253"
     style="fill:#333333;fill-opacity:1"><g
       id="g3255"
       style="fill:#333333;fill-opacity:1"><path
         d="M467.072,161.081c-0.003-23.454-15.545-47.191-45.276-48.009c10.759-11.362,15.234-25.201,12.31-39.9    c-4.58-23.022-26.033-41.056-48.844-41.056c-7.747,0-19.737,2.162-31.232,12.971c-0.34-10.961-3.791-19.093-7.597-24.79    C337.941,7.589,322.821,0,305.983,0c-16.836,0-31.957,7.589-40.45,20.297c-3.807,5.697-7.256,13.828-7.596,24.79    c-11.495-10.808-23.486-12.971-31.232-12.971c-22.808,0-44.26,18.034-48.84,41.057c-2.923,14.697,1.552,28.538,12.307,39.897    c-16.887,0.463-30.533,8.295-38.545,22.173c-8.928,15.464-8.929,36.242-0.001,51.706c8.012,13.875,21.657,21.707,38.545,22.17    c-10.759,11.362-15.234,25.204-12.308,39.906c4.582,23.021,26.031,41.049,48.836,41.049c0.002,0,0.006,0,0.009,0    c7.746-0.001,19.736-2.166,31.229-12.971c0.338,10.962,3.789,19.093,7.596,24.79c6.354,9.511,16.423,16.152,28.143,18.893v119.738    c-17.08-13.154-47.028-20.013-59.933-20.013c-4.813,0-7.851,0.892-9.852,2.893c-5.392,5.394-1.668,23.465,1.031,33.757    c2.725,10.389,8.95,29.471,20.02,40.54c12.217,12.219,29.855,14.044,39.281,14.044h0.001c0.854,0,4.899-0.036,9.452-0.633v88.582    c0,6.796,5.51,12.307,12.307,12.307c6.796,0,12.307-5.511,12.307-12.307v-7.906c4.061,0.46,7.505,0.489,8.281,0.489    c9.425,0,27.061-1.824,39.28-14.042c11.07-11.069,17.295-30.151,20.02-40.541c2.7-10.292,6.424-28.364,1.03-33.756    c-2-2.001-5.039-2.893-9.851-2.893c-12.616,0-41.516,6.556-58.761,19.139v-89.601c4.556,0.597,8.604,0.633,9.456,0.633    c9.425,0,27.061-1.824,39.28-14.042c11.07-11.07,17.295-30.153,20.02-40.541c2.7-10.292,6.424-28.366,1.03-33.757    c-2-2.001-5.039-2.893-9.851-2.893c-12.907,0-42.856,6.859-59.933,20.014v-39.207c11.72-2.742,21.787-9.382,28.143-18.893    c3.807-5.697,7.256-13.827,7.597-24.788c11.495,10.807,23.485,12.969,31.232,12.968c22.808-0.001,44.262-18.036,48.84-41.059    c2.923-14.696-1.552-28.537-12.307-39.896C451.532,208.292,467.076,184.542,467.072,161.081z M361.335,225.192    c-5.404,0-13.741-1.471-23.162-8.344c1.242,11.597-1.653,19.551-4.355,24.232c-5.695,9.863-16.099,15.751-27.833,15.751    c-11.734,0-22.139-5.888-27.833-15.751c-2.703-4.682-5.596-12.638-4.355-24.234c-9.42,6.872-17.757,8.344-23.161,8.347    c-0.002,0-0.006,0-0.007,0c-11.387,0-21.685-6.064-27.552-16.223c-5.869-10.161-5.974-22.117-0.279-31.981    c2.696-4.673,8.124-11.142,18.745-15.863c-3.243-1.439-6.192-3.13-8.839-5.069c-9.08-6.658-14.081-16.037-14.081-26.414    c0-17.999,14.36-32.641,32.011-32.641c5.405,0,13.741,1.471,23.163,8.344c-1.242-11.597,1.653-19.552,4.355-24.232    c5.695-9.864,16.099-15.752,27.833-15.752s22.138,5.888,27.833,15.752c2.703,4.68,5.596,12.636,4.355,24.232    C347.594,98.471,355.932,97,361.336,97c17.653,0,32.016,14.643,32.016,32.642c0,10.375-5,19.755-14.082,26.412    c-2.658,1.949-5.623,3.647-8.886,5.09c16.473,7.338,22.961,19.998,22.963,31.402C393.347,210.545,378.987,225.191,361.335,225.192    z"
         id="path3257"
         style="fill:#333333;fill-opacity:1" /><path
         d="M340.941,161.095c0-19.274-15.681-34.955-34.956-34.955c-19.275,0-34.956,15.681-34.956,34.955    c0,19.275,15.681,34.957,34.956,34.957C325.259,196.052,340.941,180.37,340.941,161.095z"
         id="path3259"
         style="fill:#333333;fill-opacity:1" /></g></g><g
     id="g3261"
     style="fill:#333333;fill-opacity:1" /><g
     id="g3263"
     style="fill:#333333;fill-opacity:1" /><g
     id="g3265"
     style="fill:#333333;fill-opacity:1" /><g
     id="g3267"
     style="fill:#333333;fill-opacity:1" /><g
     id="g3269"
     style="fill:#333333;fill-opacity:1" /><g
     id="g3271"
     style="fill:#333333;fill-opacity:1" /><g
     id="g3273"
     style="fill:#333333;fill-opacity:1" /><g
     id="g3275"
     style="fill:#333333;fill-opacity:1" /><g
     id="g3277"
     style="fill:#333333;fill-opacity:1" /><g
     id="g3279"
     style="fill:#333333;fill-opacity:1" /><g
     id="g3281"
     style="fill:#333333;fill-opacity:1" /><g
     id="g3283"
     style="fill:#333333;fill-opacity:1" /><g
     id="g3285"
     style="fill:#333333;fill-opacity:1" /><g
     id="g3287"
     style="fill:#333333;fill-opacity:1" /><g
     id="g3289"
     style="fill:#333333;fill-opacity:1" /></svg>