<?xml version="1.0" encoding="UTF-8" standalone="no"?>
<!-- Generator: Adobe Illustrator 18.1.1, SVG Export Plug-In . SVG Version: 6.00 Build 0)  -->

<svg
   xmlns:dc="http://purl.org/dc/elements/1.1/"
   xmlns:cc="http://creativecommons.org/ns#"
   xmlns:rdf="http://www.w3.org/1999/02/22-rdf-syntax-ns#"
   xmlns:svg="http://www.w3.org/2000/svg"
   xmlns="http://www.w3.org/2000/svg"
   xmlns:sodipodi="http://sodipodi.sourceforge.net/DTD/sodipodi-0.dtd"
   xmlns:inkscape="http://www.inkscape.org/namespaces/inkscape"
   version="1.1"
   id="Capa_1"
   x="0px"
   y="0px"
   viewBox="0 0 612 612"
   style="enable-background:new 0 0 612 612;"
   xml:space="preserve"
   inkscape:version="0.48.4 r9939"
   width="100%"
   height="100%"
   sodipodi:docname="landrace.svg"><metadata
     id="metadata3423"><rdf:RDF><cc:Work
         rdf:about=""><dc:format>image/svg+xml</dc:format><dc:type
           rdf:resource="http://purl.org/dc/dcmitype/StillImage" /></cc:Work></rdf:RDF></metadata><defs
     id="defs3421" /><sodipodi:namedview
     pagecolor="#ffffff"
     bordercolor="#666666"
     borderopacity="1"
     objecttolerance="10"
     gridtolerance="10"
     guidetolerance="10"
     inkscape:pageopacity="0"
     inkscape:pageshadow="2"
     inkscape:window-width="1629"
     inkscape:window-height="1026"
     id="namedview3419"
     showgrid="false"
     inkscape:zoom="0.38562092"
     inkscape:cx="-191.89831"
     inkscape:cy="306"
     inkscape:window-x="51"
     inkscape:window-y="24"
     inkscape:window-maximized="1"
     inkscape:current-layer="Capa_1" /><g
     id="g3383"
     style="fill:#333333;fill-opacity:1"><g
       id="g3385"
       style="fill:#333333;fill-opacity:1"><path
         d="M591.88,281.178c-5.256-6.615-13.586-10.409-22.858-10.409H320.096c0.837-6.76,4.876-32.871,20.031-62.659    c23.217-45.632,60.344-78.049,110.349-96.353c6.943-2.54,10.509-10.228,7.968-17.17c-2.539-6.94-10.224-10.508-17.17-7.968    c-70.974,25.979-107.449,74.391-125.551,110.43c-0.302,0.602-0.589,1.199-0.885,1.799c0.124-6.283,0.398-12.824,0.878-19.573    c3.223-45.308,16.425-109.277,61.033-156.724c5.062-5.386,4.801-13.857-0.585-18.92c-5.385-5.061-13.858-4.8-18.92,0.585    c-39.718,42.249-63.33,102.385-68.282,173.909c-0.308,4.44-0.529,8.78-0.688,13.028c-1.096-2.136-2.215-4.286-3.374-6.457    c-31.614-59.221-71.833-102.138-116.312-124.111c-6.628-3.272-14.653-0.555-17.928,6.073c-3.274,6.627-0.555,14.653,6.073,17.928    c86.574,42.77,128.078,162.214,135.654,186.183H42.979c-9.273,0-17.603,3.794-22.859,10.409s-7.067,15.589-4.971,24.622    L78.79,579.998C82.886,597.644,100.957,612,119.074,612h373.855c18.116,0,36.187-14.357,40.283-32.002L596.851,305.8    C598.947,296.769,597.137,287.794,591.88,281.178z M376.221,550.937c10.21,0,18.516,8.306,18.516,18.516    c0,10.21-8.306,18.516-18.516,18.516s-18.516-8.306-18.516-18.516C357.705,559.244,366.012,550.937,376.221,550.937z     M341.763,524.42c-4.976,2.606-14.447,11.679-31.781,11.679c-15.452,0-26.045-7.224-31.204-9.844    c-56.426-28.669-80.424-70.241-51.838-108.101c67.772-89.759,35.485-132.007,79.256-132.007c43.768,0,16.953,45.89,79.253,132.007    C408.122,449.494,400.08,493.884,341.763,524.42z M156.841,371.209c-11.07,0-20.078-9.006-20.078-20.078    s9.006-20.078,20.078-20.078c11.072,0,20.078,9.006,20.078,20.078S167.911,371.209,156.841,371.209z M115.068,446.665    c10.141,0,18.392,8.25,18.392,18.392c0,10.141-8.25,18.392-18.392,18.392s-18.392-8.25-18.392-18.392    C96.677,454.915,104.927,446.665,115.068,446.665z M188.518,535.809c11.513,0,20.878,9.365,20.878,20.878    c0,11.513-9.365,20.878-20.878,20.878s-20.878-9.365-20.878-20.878C167.64,545.174,177.005,535.809,188.518,535.809z     M511.463,368.837c0,11.809-9.607,21.416-21.416,21.416s-21.416-9.607-21.416-21.416c0-11.809,9.607-21.416,21.416-21.416    S511.463,357.028,511.463,368.837z M491.334,495.318c0,9.566-7.782,17.349-17.349,17.349s-17.349-7.782-17.349-17.349    c0-9.567,7.782-17.349,17.349-17.349S491.334,485.753,491.334,495.318z"
         id="path3387"
         style="fill:#333333;fill-opacity:1" /></g></g><g
     id="g3389"
     style="fill:#333333;fill-opacity:1" /><g
     id="g3391"
     style="fill:#333333;fill-opacity:1" /><g
     id="g3393"
     style="fill:#333333;fill-opacity:1" /><g
     id="g3395"
     style="fill:#333333;fill-opacity:1" /><g
     id="g3397"
     style="fill:#333333;fill-opacity:1" /><g
     id="g3399"
     style="fill:#333333;fill-opacity:1" /><g
     id="g3401"
     style="fill:#333333;fill-opacity:1" /><g
     id="g3403"
     style="fill:#333333;fill-opacity:1" /><g
     id="g3405"
     style="fill:#333333;fill-opacity:1" /><g
     id="g3407"
     style="fill:#333333;fill-opacity:1" /><g
     id="g3409"
     style="fill:#333333;fill-opacity:1" /><g
     id="g3411"
     style="fill:#333333;fill-opacity:1" /><g
     id="g3413"
     style="fill:#333333;fill-opacity:1" /><g
     id="g3415"
     style="fill:#333333;fill-opacity:1" /><g
     id="g3417"
     style="fill:#333333;fill-opacity:1" /></svg>