<?xml version="1.0" encoding="UTF-8" standalone="no"?>
<!-- Generator: Adobe Illustrator 16.0.0, SVG Export Plug-In . SVG Version: 6.00 Build 0)  -->

<svg
   xmlns:dc="http://purl.org/dc/elements/1.1/"
   xmlns:cc="http://creativecommons.org/ns#"
   xmlns:rdf="http://www.w3.org/1999/02/22-rdf-syntax-ns#"
   xmlns:svg="http://www.w3.org/2000/svg"
   xmlns="http://www.w3.org/2000/svg"
   xmlns:sodipodi="http://sodipodi.sourceforge.net/DTD/sodipodi-0.dtd"
   xmlns:inkscape="http://www.inkscape.org/namespaces/inkscape"
   version="1.1"
   id="Capa_1"
   x="0px"
   y="0px"
   width="47px"
   height="47px"
   viewBox="0 0 47 47"
   style="enable-background:new 0 0 47 47;"
   xml:space="preserve"
   inkscape:version="0.48.4 r9939"
   sodipodi:docname="organizations.svg"><metadata
     id="metadata54"><rdf:RDF><cc:Work
         rdf:about=""><dc:format>image/svg+xml</dc:format><dc:type
           rdf:resource="http://purl.org/dc/dcmitype/StillImage" /></cc:Work></rdf:RDF></metadata><defs
     id="defs52" /><sodipodi:namedview
     pagecolor="#ffffff"
     bordercolor="#666666"
     borderopacity="1"
     objecttolerance="10"
     gridtolerance="10"
     guidetolerance="10"
     inkscape:pageopacity="0"
     inkscape:pageshadow="2"
     inkscape:window-width="1629"
     inkscape:window-height="1026"
     id="namedview50"
     showgrid="false"
     inkscape:zoom="7.1011575"
     inkscape:cx="-6.2671036"
     inkscape:cy="16.907069"
     inkscape:window-x="51"
     inkscape:window-y="24"
     inkscape:window-maximized="1"
     inkscape:current-layer="Capa_1" /><g
     id="g3"
     transform="matrix(0.96738685,0,0,0.96738685,0.35176344,0.77081903)"
     style="fill:#333333;fill-opacity:1"><g
       id="Layer_1_110_"
       style="fill:#333333;fill-opacity:1"><g
         id="g6"
         style="fill:#333333;fill-opacity:1"><path
           d="m 10.09375,5.90625 c -0.2015831,-0.021021 -0.3730099,-0.00278 -0.5,0.03125 -1.135815,0.304341 -3.51536,3.4873843 -2.75,6.34375 0.765361,2.856366 4.395688,4.429273 5.53125,4.125 0.421821,-0.113026 0.937423,-0.540528 1.40625,-1.125 L 16.09375,17.5 c 0.432,-0.571 0.92475,-1.1015 1.46875,-1.5625 L 14.84375,13.375 c 0.194569,-0.515124 0.319584,-1.067773 0.375,-1.625 0.05661,-0.569192 0.05581,-1.160585 -0.09375,-1.71875 -0.67471,-2.5189384 -3.620168,-3.9778538 -5.03125,-4.125 z"
           id="path8"
           inkscape:connector-curvature="0"
           style="fill:#333333;fill-opacity:1" /><path
           d="M 34.5625,0.84375 C 34.209583,0.85299831 33.844663,0.90764793 33.5,1 30.621213,1.7710965 29.102784,5.5465791 29.375,6.5625 29.51819,7.0968936 30.322275,7.8734975 31.40625,8.5 l -3.5625,6 c 0.651,0.295 1.2465,0.66275 1.8125,1.09375 L 33.4375,9.3125 C 34.18978,9.4749952 34.951559,9.486818 35.71875,9.28125 38.575116,8.5158889 40.148023,4.8855621 39.84375,3.75 39.531923,2.5862442 37.032922,0.77901186 34.5625,0.84375 z"
           id="path10"
           inkscape:connector-curvature="0"
           style="fill:#333333;fill-opacity:1" /><path
           d="m 42.75,20.875 c -0.352917,0.0092 -0.717837,0.0639 -1.0625,0.15625 -1.424805,0.38164 -2.513201,1.505009 -3.21875,2.65625 l -4.9375,-0.46875 c 0,0.04 0,0.05475 0,0.09375 0,0.688 -0.08175,1.38225 -0.21875,2.03125 L 37.625,25.75 c -0.06635,0.332201 -0.112043,0.627602 -0.0625,0.8125 0.304341,1.135815 3.487384,3.51536 6.34375,2.75 2.856366,-0.765361 4.429273,-4.395688 4.125,-5.53125 C 47.719423,22.617494 45.220422,20.810262 42.75,20.875 z"
           id="path12"
           inkscape:connector-curvature="0"
           style="fill:#333333;fill-opacity:1" /><path
           d="m 27.03125,32.46875 c -0.666,0.232 -1.37075,0.38575 -2.09375,0.46875 l 1.1875,5.09375 c -2.360991,1.16911 -3.589763,4.300621 -3.34375,5.21875 0.304341,1.135815 3.487384,3.51536 6.34375,2.75 2.856366,-0.765361 4.429273,-4.395688 4.125,-5.53125 -0.302687,-1.129646 -2.663965,-2.865422 -5.0625,-2.90625 l -1.15625,-5.09375 z"
           id="path14"
           inkscape:connector-curvature="0"
           style="fill:#333333;fill-opacity:1" /><path
           d="m 4.96875,24.5 c -1.4694728,0.135759 -4.36155837,1.625681 -5.03125,4.125 -0.76536049,2.856366 1.614437,6.039477 2.75,6.34375 0.8312539,0.222734 2.4958223,-0.353796 3.8125,-1.5 1.1922563,-0.750429 1.96875,-2.079271 1.96875,-3.59375 0,-0.098 -0.02325,-0.18525 -0.03125,-0.28125 l 6.59375,-2.1875 c -0.297,-0.641 -0.5345,-1.32425 -0.6875,-2.03125 l -6.4375,2.15625 C 7.260437,25.932841 6.1178029,24.665539 5.5,24.5 5.3580231,24.46196 5.1786747,24.48061 4.96875,24.5 z"
           id="path16"
           inkscape:connector-curvature="0"
           style="fill:#333333;fill-opacity:1" /><circle
           cx="23.83"
           cy="23.323"
           r="7.2709999"
           id="circle18"
           d="m 31.101,23.323 c 0,4.015662 -3.255338,7.271 -7.271,7.271 -4.015662,0 -7.271,-3.255338 -7.271,-7.271 0,-4.015662 3.255338,-7.271 7.271,-7.271 4.015662,0 7.271,3.255338 7.271,7.271 z"
           sodipodi:cx="23.83"
           sodipodi:cy="23.323"
           sodipodi:rx="7.2709999"
           sodipodi:ry="7.2709999"
           style="fill:#333333;fill-opacity:1" /></g></g></g><g
     id="g20" /><g
     id="g22" /><g
     id="g24" /><g
     id="g26" /><g
     id="g28" /><g
     id="g30" /><g
     id="g32" /><g
     id="g34" /><g
     id="g36" /><g
     id="g38" /><g
     id="g40" /><g
     id="g42" /><g
     id="g44" /><g
     id="g46" /><g
     id="g48" /></svg>