<?xml version="1.0" encoding="UTF-8" standalone="no"?>
<!-- Generator: Adobe Illustrator 16.0.0, SVG Export Plug-In . SVG Version: 6.00 Build 0)  -->

<svg
   xmlns:dc="http://purl.org/dc/elements/1.1/"
   xmlns:cc="http://creativecommons.org/ns#"
   xmlns:rdf="http://www.w3.org/1999/02/22-rdf-syntax-ns#"
   xmlns:svg="http://www.w3.org/2000/svg"
   xmlns="http://www.w3.org/2000/svg"
   xmlns:sodipodi="http://sodipodi.sourceforge.net/DTD/sodipodi-0.dtd"
   xmlns:inkscape="http://www.inkscape.org/namespaces/inkscape"
   version="1.1"
   id="Capa_1"
   x="0px"
   y="0px"
   width="46.025px"
   height="46.025px"
   viewBox="0 0 46.025 46.025"
   style="enable-background:new 0 0 46.025 46.025;"
   xml:space="preserve"
   inkscape:version="0.48.4 r9939"
   sodipodi:docname="samples.svg"><metadata
     id="metadata3530"><rdf:RDF><cc:Work
         rdf:about=""><dc:format>image/svg+xml</dc:format><dc:type
           rdf:resource="http://purl.org/dc/dcmitype/StillImage" /></cc:Work></rdf:RDF></metadata><defs
     id="defs3528" /><sodipodi:namedview
     pagecolor="#ffffff"
     bordercolor="#666666"
     borderopacity="1"
     objecttolerance="10"
     gridtolerance="10"
     guidetolerance="10"
     inkscape:pageopacity="0"
     inkscape:pageshadow="2"
     inkscape:window-width="1629"
     inkscape:window-height="1026"
     id="namedview3526"
     showgrid="false"
     inkscape:zoom="5.1276478"
     inkscape:cx="-14.431568"
     inkscape:cy="23.012501"
     inkscape:window-x="51"
     inkscape:window-y="24"
     inkscape:window-maximized="1"
     inkscape:current-layer="Capa_1" /><g
     id="g3480"
     transform="matrix(0,-1,1,0,-2.1129444e-4,46.026507)"
     style="fill:#333333;fill-opacity:1"><g
       id="g3482"
       style="fill:#333333;fill-opacity:1"><path
         d="M 45.121,29.379 31.928,8.201 C 30.181,5.396 26.49,4.539 23.687,6.286 l -7.734,4.817 c -0.234,0.146 -0.356,0.418 -0.309,0.689 l 0.099,0.569 c 0.133,0.758 -0.145,1.529 -0.728,2.03 l -1.16,0.997 c -0.235,0.203 -0.303,0.54 -0.162,0.817 l 0.377,0.742 c 0.243,0.479 0.271,1.038 0.076,1.539 -0.195,0.5 -0.595,0.893 -1.097,1.081 l -0.474,0.176 c -0.344,0.128 -0.522,0.507 -0.402,0.853 l 0.244,0.704 c 0.18,0.521 0.156,1.091 -0.068,1.596 l -0.491,1.1 c -0.091,0.205 -0.075,0.441 0.043,0.631 L 23.32,42.96 c 0.839,1.348 2.179,2.306 3.724,2.664 1.545,0.359 3.17,0.09 4.519,-0.749 l 11.644,-7.252 c 2.803,-1.749 3.66,-5.438 1.914,-8.244 z m -8.775,-2.057 c -0.188,0.805 -0.684,1.46 -1.333,1.865 -0.433,0.27 -0.935,0.429 -1.459,0.451 0.372,1.258 -0.121,2.66 -1.289,3.389 -1.169,0.729 -2.646,0.553 -3.611,-0.337 -0.25,0.461 -0.614,0.841 -1.048,1.111 -0.65,0.403 -1.455,0.562 -2.261,0.374 -1.341,-0.312 -2.261,-1.479 -2.315,-2.794 -1.26,0.374 -2.662,-0.12 -3.39,-1.288 -0.728,-1.17 -0.552,-2.646 0.336,-3.611 -1.153,-0.627 -1.796,-1.967 -1.484,-3.31 0.313,-1.34 1.48,-2.259 2.792,-2.314 -0.373,-1.258 0.121,-2.661 1.29,-3.389 1.169,-0.728 2.645,-0.553 3.612,0.336 0.627,-1.153 1.967,-1.796 3.309,-1.484 1.342,0.311 2.26,1.478 2.314,2.792 1.26,-0.372 2.662,0.121 3.391,1.29 0.729,1.168 0.553,2.645 -0.338,3.61 1.153,0.628 1.796,1.968 1.484,3.309 z"
         id="path3484"
         inkscape:connector-curvature="0"
         style="fill:#333333;fill-opacity:1" /><path
         d="m 24.582,20.693 c -2.513,1.564 -3.284,4.881 -1.72,7.393 1.565,2.512 4.882,3.283 7.394,1.72 2.512,-1.564 3.283,-4.883 1.719,-7.395 -1.565,-2.513 -4.883,-3.283 -7.393,-1.718 z m 5.039,8.093 c -1.949,1.215 -4.524,0.616 -5.74,-1.334 -1.216,-1.95 -0.618,-4.524 1.333,-5.741 1.951,-1.214 4.525,-0.617 5.74,1.333 1.216,1.952 0.618,4.527 -1.333,5.742 z"
         id="path3486"
         inkscape:connector-curvature="0"
         style="fill:#333333;fill-opacity:1" /><path
         d="m 8.151,11.575 c 0,-1.135 -0.92,-4.077 -2.055,-4.077 -1.135,0 -2.054,2.942 -2.054,4.077 0,1.135 0.919,2.055 2.054,2.055 1.135,-0.001 2.055,-0.921 2.055,-2.055 z"
         id="path3488"
         inkscape:connector-curvature="0"
         style="fill:#333333;fill-opacity:1" /><path
         d="M 4.276,2.974 C 3.747,1.972 1.558,-0.202 0.555,0.33 -0.448,0.861 0.114,3.892 0.645,4.895 1.175,5.899 2.418,6.282 3.422,5.751 4.424,5.221 4.808,3.978 4.276,2.974 z"
         id="path3490"
         inkscape:connector-curvature="0"
         style="fill:#333333;fill-opacity:1" /><path
         d="m 8.91,18.649 c -0.994,-0.55 -2.244,-0.19 -2.793,0.803 -0.549,0.993 -1.169,4.012 -0.176,4.562 0.994,0.551 3.222,-1.581 3.771,-2.573 0.551,-0.994 0.19,-2.243 -0.802,-2.792 z"
         id="path3492"
         inkscape:connector-curvature="0"
         style="fill:#333333;fill-opacity:1" /><path
         d="M 13.693,6.022 C 14.423,5.152 14.309,3.857 13.44,3.127 12.57,2.398 9.726,1.21 8.996,2.081 8.267,2.951 9.93,5.547 10.8,6.276 c 0.867,0.729 2.163,0.617 2.893,-0.254 z"
         id="path3494"
         inkscape:connector-curvature="0"
         style="fill:#333333;fill-opacity:1" /></g></g><g
     id="g3496" /><g
     id="g3498" /><g
     id="g3500" /><g
     id="g3502" /><g
     id="g3504" /><g
     id="g3506" /><g
     id="g3508" /><g
     id="g3510" /><g
     id="g3512" /><g
     id="g3514" /><g
     id="g3516" /><g
     id="g3518" /><g
     id="g3520" /><g
     id="g3522" /><g
     id="g3524" /></svg>